<?xml version="1.0" encoding="utf-8"?><svg fill="none" height="28" viewBox="0 0 28 28" width="28" xmlns="http://www.w3.org/2000/svg"><g stroke="#000ee6" stroke-linecap="round" stroke-linejoin="round" stroke-width="1.5"><path d="m24.4953 17.4802v-7.0373"/><path d="m3.4953 10.4429v7.0385"/><path d="m11.8976 3.68787-6.50997 3.5385"/><path d="m22.5726 7.21003-6.4808-3.52216"/><path clip-rule="evenodd" d="m13.9953 5.25c1.2081 0 2.1875-.97938 2.1875-2.1875s-.9794-2.1875-2.1875-2.1875-2.1875.97938-2.1875 2.1875.9794 2.1875 2.1875 2.1875z" fill-rule="evenodd"/><path d="m11.9186 24.2468-6.53097-3.5501"/><path d="m22.5726 20.713-6.5018 3.5338"/><g clip-rule="evenodd" fill-rule="evenodd"><path d="m13.9953 27.125c1.2081 0 2.1875-.9794 2.1875-2.1875s-.9794-2.1875-2.1875-2.1875-2.1875.9794-2.1875 2.1875.9794 2.1875 2.1875 2.1875z"/><path d="m3.45679 10.4429c1.20812 0 2.1875-.97941 2.1875-2.18753s-.97938-2.1875-2.1875-2.1875c-1.20813 0-2.1875.97938-2.1875 2.1875s.97937 2.18753 2.1875 2.18753z"/><path d="m3.45679 21.8552c1.20812 0 2.1875-.9794 2.1875-2.1875s-.97938-2.1875-2.1875-2.1875c-1.20813 0-2.1875.9794-2.1875 2.1875s.97937 2.1875 2.1875 2.1875z"/><path d="m24.4952 10.4429c1.2082 0 2.1875-.97941 2.1875-2.18753s-.9793-2.1875-2.1875-2.1875c-1.2081 0-2.1875.97938-2.1875 2.1875s.9794 2.18753 2.1875 2.18753z"/><path d="m24.4952 21.8552c1.2082 0 2.1875-.9794 2.1875-2.1875s-.9793-2.1875-2.1875-2.1875c-1.2081 0-2.1875.9794-2.1875 2.1875s.9794 2.1875 2.1875 2.1875z"/></g><path d="m11.8265 16.5503c.5141.6751 1.3257 1.0562 2.1735 1.0208 1.3276 0 2.4056-.8073 2.4056-1.8048s-1.0826-1.8037-2.4056-1.8037-2.4069-.8085-2.4069-1.806 1.0734-1.8048 2.4069-1.8048c.8458-.0337 1.6549.3473 2.1676 1.0208"/><path d="m13.9953 17.5712v1.2028"/><path d="m13.9953 9.14905v1.20285"/></g></svg>