<?xml version="1.0" encoding="utf-8"?><svg fill="none" height="28" viewBox="0 0 28 28" width="28" xmlns="http://www.w3.org/2000/svg"><g stroke="#000ee6" stroke-linecap="round" stroke-linejoin="round" stroke-width="1.5"><path clip-rule="evenodd" d="m20.7783 12.2325c-.5505-.4892-.7846-1.2431-.608-1.9581.1767-.71496.7349-1.27319 1.4499-1.44981.7149-.17661 1.4689.05747 1.9581.60795.1963.19658.3511.43068.455.68836.0627.1582.2.275.3663.3115.1642.0362.3356-.0134.455-.1319l1.5459-1.55046c.1855-.18951.2881-.44496.2853-.71014-.0029-.26518-.111-.51837-.3005-.70386l-1.6205-1.61933c.3376-.08594.6456-.26172.8913-.50867.7546-.79499.7383-2.0465-.0367-2.82156-.7751-.77507-2.0266-.79138-2.8216-.03677-.2467.24589-.4225.55384-.5087.89133l-1.6216-1.6205c-.186-.19029-.4401-.29863-.7061-.30104-.2661-.00241-.5221.10131-.7114.28821l-1.435 1.435c-.1054.10597-.1569.25404-.14.4025.0168.15045.0992.28579.2251.36983.6426.41077.9927 1.1536.9006 1.91065-.0921.75706-.6102 1.39423-1.3325 1.6389-.7223.24468-1.521.05351-2.0542-.49171-.0926-.09622-.1755-.20134-.2474-.31384-.0844-.12566-.2195-.20829-.3698-.22633-.1485-.017-.2966.03453-.4025.14l-1.4443 1.435c-.3868.39471-.3805 1.02818.014 1.41517l5.7166 5.71662c.387.3945 1.0205.4008 1.4152.014l1.5458-1.5458c.1182-.119.1675-.2902.1307-.4538-.0367-.1661-.1527-.3036-.3103-.3675-.2565-.103-.4892-.2575-.6837-.4539z" fill-rule="evenodd"/><path d="m15.5482 19.0948 8.8025-.6708c.651-.0504 1.2788.2533 1.6433.7951.3645.5417.4092 1.2377.1172 1.8217-.2045.4093-.5563.7261-.9847.8867l-12.1765 4.5652c-.7498.2817-1.5737.297-2.3333.0431l-9.32404-3.108"/><path d="m7.41766 19.9279h6.75264c.6701.0003 1.2651-.4283 1.477-1.064.1355-.4054.0982-.8487-.1031-1.2258-.2012-.3771-.5487-.6548-.9609-.768l-6.93114-1.8888c-.73102-.2005-1.49679-.2403-2.24466-.1167l-4.11484.686"/></g></svg>