<?xml version="1.0" encoding="utf-8"?><svg fill="none" height="32" viewBox="0 0 28 32" width="28" xmlns="http://www.w3.org/2000/svg"><g stroke="#000ee6" stroke-linecap="round" stroke-linejoin="round" stroke-width="1.5"><path d="m27.125 27.98-1.7383-2.98v-7c0-2.6667-4.4334-5.52-6.125-7"/><path d="m21.5134 19.724-4.256-3.8973c-.5938-.6786-1.5565-.6786-2.1502 0-.5938.6786-.5938 1.7787 0 2.4573l4.1218 5.316v3.3333c0 1.5747 1.9694 4.06 1.9694 4.06"/><path d="m15.7617 29h-13.27203c-.88551-.0007-1.603005-.8213-1.603005-1.8333v-24.3347c0-1.01179.717685-1.832 1.603005-1.832h15.16663c.4255-.000353.8336.19246 1.1347.53603.301.34357.4704.80974.4707 1.29597v14.8307"/><path d="m11.3867 5h3.5v4"/><path d="m14.8867 5-10.50003 11"/><path d="m6.125 21v4"/><path d="m9.625 18v7"/></g></svg>