<?xml version="1.0" encoding="utf-8"?><svg fill="none" height="28" viewBox="0 0 28 28" width="28" xmlns="http://www.w3.org/2000/svg"><g stroke="#000ee6" stroke-linecap="round" stroke-linejoin="round" stroke-width="1.5"><path d="m1.75 16.0416h24.5"/><path d="m26.25 19.5416h-24.5"/><path d="m3.5 19.5416s1.05 7 10.5 7 10.5-7 10.5-7"/><path d="m3.5 16.0416c-1.65248-1.2393-2.625-3.1844-2.625-5.25 0-3.49997 7.875-9.62497 13.125-9.62497s13.125 6.125 13.125 9.62497c0 2.0656-.9725 4.0107-2.625 5.25"/><path clip-rule="evenodd" d="m14.2707 12.4518-.2707.0898-.2707-.0898c-1.6675-.556-2.7921-2.1167-2.7918-3.87451v-1.28566c0-.48325.3918-.875.875-.875h4.375c.4833 0 .875.39175.875.875v1.28333c.0013 1.75864-1.1235 3.32064-2.7918 3.87684z" fill-rule="evenodd"/></g></svg>