<svg xmlns="http://www.w3.org/2000/svg" viewBox="0 0 121 121"><defs><style>.cls-2{fill:none;stroke:#204ecf;stroke-linejoin:round}</style></defs><g id="Layer_2" data-name="Layer 2"><g id="Icons"><path d="M80.15 57.64A11.62 11.62 0 0 0 86.48 47c0-7.83-8.71-13.07-16.2-13.07H68V23.06h-6.8V34h-4.81V23.06h-6.81V34h-15v6.81h7a2 2 0 0 1 1.83 2.11V76.5a1.64 1.64 0 0 1-1.83 1.7h-7v8.17h15v11.57h6.81V86.37h4.77v11.57H68V86.37h5.59c5.85 0 16.2-3.74 16.2-15.25s-9.64-13.48-9.64-13.48zM56.39 40.76h8.85a7.52 7.52 0 1 1 0 15h-8.85zm16.85 35.18a9.8 9.8 0 0 1-6.3 2.19H56.39V63.22h10.55c4.9 0 8.92 3.34 8.92 7.42a6.89 6.89 0 0 1-2.62 5.3z" fill="#e4e8f8"/><circle class="cls-2" cx="60.5" cy="60.5" r="60"/><path class="cls-2" d="M56.39 40.76h8.85a7.52 7.52 0 0 1 7.49 7.55 7.47 7.47 0 0 1-7.49 7.49h-8.85zM56.39 63.22h10.55c4.9 0 8.92 3.34 8.92 7.42 0 4.16-4 7.49-8.92 7.49H56.39z"/><path class="cls-2" d="M80.15 57.64A11.62 11.62 0 0 0 86.48 47c0-7.83-8.71-13.07-16.2-13.07H68V23.06h-6.8V34h-4.81V23.06h-6.81V34h-15v6.81h7a2 2 0 0 1 1.84 2.11V76.5a1.65 1.65 0 0 1-1.84 1.7h-7v8.17h15v11.57h6.81V86.37h4.77v11.57H68V86.37h5.59c5.85 0 16.2-3.74 16.2-15.25s-9.64-13.48-9.64-13.48z"/></g></g></svg>