<svg xmlns="http://www.w3.org/2000/svg" viewBox="0 0 121 121"><defs><style>.cls-1{fill:#e4e8f8}.cls-2,.cls-3{fill:none;stroke:#204ecf;stroke-linejoin:round}.cls-2{fill-rule:evenodd}</style></defs><g id="Layer_2" data-name="Layer 2"><g id="Icons"><path class="cls-1" d="M86 41.1a27.83 27.83 0 0 1-25.5-7.93A27.83 27.83 0 0 1 35 41.1c-3.42 39 25.49 46.73 25.49 46.73S89.41 80.12 86 41.1zM60.5 74.25A13.75 13.75 0 1 1 74.25 60.5 13.76 13.76 0 0 1 60.5 74.25zM16.64 15.06v19.57l16.13-7.28V7.78l-16.13 7.28zM104.36 15.06v19.57l16.14-7.28V7.78l-16.14 7.28zM16.64 100.93v19.57l16.13-7.28V93.65l-16.13 7.28zM104.36 100.93v19.57l16.14-7.28V93.65l-16.14 7.28z"/><path class="cls-2" d="M16.64 15.06l16.13-7.28L16.64.5.5 7.78l16.14 7.28z"/><path class="cls-2" d="M32.77 7.78v19.57l-16.13 7.28L.5 27.35V7.78M104.36 15.06l16.14-7.28L104.36.5 88.23 7.78l16.13 7.28z"/><path class="cls-2" d="M120.5 7.78v19.57l-16.14 7.28-16.13-7.28V7.78M16.64 86.38L.5 93.65l16.14 7.28 16.13-7.28-10.73-4.84"/><path class="cls-2" d="M32.77 93.65v19.57l-16.13 7.28L.5 113.22V93.65M104.36 86.38l-16.13 7.27 16.13 7.28 16.14-7.28-10.73-4.84"/><path class="cls-2" d="M120.5 93.65v19.57l-16.14 7.28-16.13-7.28V93.65"/><path class="cls-3" d="M32.77 17.56h48.46M39.77 103.44h48.46M104.37 34.63v59.02M16.63 34.63v59.02M60.5 87.83S31.59 80.12 35 41.1a27.83 27.83 0 0 0 25.5-7.93A27.83 27.83 0 0 0 86 41.1c3.41 39.02-25.5 46.73-25.5 46.73z"/><circle class="cls-3" cx="60.5" cy="60.5" r="13.75"/><path class="cls-3" d="M56.02 60.11l3.76 3.77 5.98-5.98"/></g></g></svg>