<svg xmlns="http://www.w3.org/2000/svg" viewBox="0 0 121 121"><defs><style>.cls-1{fill:#e4e8f8}.cls-2,.cls-3{fill:none;stroke:#204ecf;stroke-linejoin:round}.cls-3{stroke-linecap:round}</style></defs><g id="Layer_2" data-name="Layer 2"><g id="Icons"><path class="cls-1" d="M76.84 25.07l4.75 20.76 17.59 11.08-22.34-31.84zM39.99 74.51L21.82 64.17l22.92 31.76-4.75-21.42z"/><path class="cls-1" d="M53.33 82.01l29.68 10-38.27 3.92 8.59-13.92zM68.67 37.66l-30.6 26.51 38.77 13-8.17-39.51zM83.01 92.01l.83-36.26 15.34 1.16-16.17 35.1z"/><circle class="cls-2" cx="60.5" cy="60.5" r="60"/><path class="cls-2" d="M38.07 64.17l-.33-14.84.33-21.01M44.74 95.93l-4.75-21.42-1.92-10.34M76.84 77.17l-13.92 8.09-18.18 10.67M99.18 56.91L83.51 71.09l-6.67 6.08M68.67 37.66l12.92 8.17 17.59 11.08M38.07 28.32l20.85 6.5 9.75 2.84M76.84 77.17l-2.67-13-2.58-12.84-2.92-13.67M38.07 64.17l12.68 4.25L64 72.84l12.84 4.33M68.67 37.66l-10.25 8.92-10.26 8.92-10.09 8.67"/><path class="cls-2" d="M45.58 41.99l12.84 4.59 13.17 4.75 12.25 4.42-9.67 8.42L64 72.84l-10.67 9.17-2.58-13.59-2.59-12.92-2.58-13.51z"/><path class="cls-3" d="M38.07 28.32l7.51 13.67-7.76 7.34-16 14.84 16.25-35.85"/><path class="cls-2" d="M45.58 41.99l13.34-7.17 17.92-9.75-38.77 3.25M99.18 56.91L76.84 25.07l4.75 20.76 2.25 9.92 15.34 1.16"/><path class="cls-3" d="M99.18 56.91l-16.17 35.1.5-20.92.33-15.34M44.74 95.93l8.59-13.92 9.59 3.25 20.09 6.75-38.27 3.92M53.33 82.01l-13.34-7.5-18.17-10.34 22.92 31.76"/></g></g></svg>