<svg xmlns="http://www.w3.org/2000/svg" xmlns:xlink="http://www.w3.org/1999/xlink" width="423.844" height="327.362" viewBox="0 0 423.844 327.362">
  <defs>
    <linearGradient id="linear-gradient" x1="14.929" y1="1" x2="14.929" gradientUnits="objectBoundingBox">
      <stop offset="0" stop-color="gray" stop-opacity="0.251"/>
      <stop offset="0.54" stop-color="gray" stop-opacity="0.122"/>
      <stop offset="1" stop-color="gray" stop-opacity="0.102"/>
    </linearGradient>
  </defs>
  <g id="undraw_prototyping_process_rswj" transform="translate(0.009 0.008)">
    <ellipse id="Ellipse_47" data-name="Ellipse 47" cx="90.649" cy="13.74" rx="90.649" ry="13.74" transform="translate(41.686 299.873)" fill="#9519c8" opacity="0.1"/>
    <path id="Path_246" data-name="Path 246" d="M175.639,35.6c14.378-12.672,36.95-15.267,57.5-14.244,64.534,3.176,122.782,33.966,173.183,68.8,18.244,12.615,36.206,26.2,48.046,43.573,24.107,35.351,16.954,84.328-16.565,113.45-11.4,9.924-25.229,17.508-39.42,24.24-25.237,11.973-52.466,21.584-81.107,24.321-20.424,1.95-41.1.363-61.4-2.359-56.733-7.6-112.42-24.427-159.092-53.195-20.469-12.6-39.763-28.305-48.2-48.721S45.524,145.178,66.444,133.1c8.645-5,18.981-7.252,29.1-9.378,14.886-3.118,30.031-6.195,43.473-12.534,13.882-6.553,30.321-19.221,27.573-33.718C163.639,61.907,161.265,48.247,175.639,35.6Z" transform="translate(-44.77 -21.16)" fill="#9519c8" opacity="0.1"/>
    <path id="Path_247" data-name="Path 247" d="M934.643,69.42c2.58,17.008-4.6,32.2-4.6,32.2s-11.363-12.378-13.95-29.386a59.344,59.344,0,0,1,1.878-24.542,4.2,4.2,0,0,1,7.592-1.145A59.1,59.1,0,0,1,934.643,69.42Z" transform="translate(-583.187 -35.661)" fill="#9519c8"/>
    <path id="Path_248" data-name="Path 248" d="M1063.927,180.639a29.354,29.354,0,0,1,7.576.958,4.208,4.208,0,0,1,.088,8.126,29.444,29.444,0,0,1-7.553,1.122,33.783,33.783,0,0,1-17.008-4.92A33.823,33.823,0,0,1,1063.927,180.639Z" transform="translate(-664.493 -119.774)" fill="#9519c8"/>
    <path id="Path_249" data-name="Path 249" d="M1005.217,96.914c-8.714,9.576-10.557,22.092-10.557,22.092s12.282-3.015,20.992-12.6a43.365,43.365,0,0,0,8.191-13.668,4.2,4.2,0,0,0-5.771-5.267A43.115,43.115,0,0,0,1005.217,96.914Z" transform="translate(-632.112 -61.903)" fill="#9519c8"/>
    <rect id="Rectangle_26" data-name="Rectangle 26" width="196.183" height="236.248" rx="19.8" transform="translate(195.208 33.205)" fill="#464353"/>
    <rect id="Rectangle_27" data-name="Rectangle 27" width="162.336" height="188.584" transform="translate(212.132 57.037)" fill="#9519c8" opacity="0.1"/>
    <circle id="Ellipse_48" data-name="Ellipse 48" cx="6.908" cy="6.908" r="6.908" transform="translate(286.392 251.148)" fill="#fff"/>
    <path id="Path_250" data-name="Path 250" d="M807.943,142.347a3.263,3.263,0,1,1,3.263-3.263A3.263,3.263,0,0,1,807.943,142.347Z" transform="translate(-514.643 -92.061)" fill="#fff"/>
    <path id="Path_251" data-name="Path 251" d="M807.6,135.7a3.073,3.073,0,1,1-3.073,3.073A3.073,3.073,0,0,1,807.6,135.7m0-.382a3.435,3.435,0,1,0,2.436,1.013A3.454,3.454,0,0,0,807.6,135.32Z" transform="translate(-514.303 -91.752)" fill="#fff"/>
    <rect id="Rectangle_28" data-name="Rectangle 28" width="33.668" height="45.771" rx="4.3" transform="translate(219.674 115.457)" fill="#fff" stroke="#fff" stroke-miterlimit="10" stroke-width="1"/>
    <rect id="Rectangle_29" data-name="Rectangle 29" width="27.355" height="14.523" rx="7.14" transform="translate(222.831 126.991)" fill="#9519c8" opacity="0.5"/>
    <rect id="Rectangle_30" data-name="Rectangle 30" width="15.935" height="2.256" rx="1.128" transform="translate(228.541 147.438)" fill="#9519c8"/>
    <rect id="Rectangle_31" data-name="Rectangle 31" width="33.668" height="45.771" rx="4.3" transform="translate(276.594 115.457)" fill="#fff" stroke="#fff" stroke-miterlimit="10" stroke-width="1"/>
    <rect id="Rectangle_32" data-name="Rectangle 32" width="16.134" height="8.565" rx="1.46" transform="translate(285.449 122.606)" fill="#9519c8" opacity="0.5"/>
    <rect id="Rectangle_33" data-name="Rectangle 33" width="20.595" height="2.256" rx="1.128" transform="translate(283.09 139.198)" fill="#9519c8"/>
    <rect id="Rectangle_34" data-name="Rectangle 34" width="20.595" height="2.256" rx="1.128" transform="translate(283.09 143.404)" fill="#9519c8"/>
    <rect id="Rectangle_35" data-name="Rectangle 35" width="33.668" height="45.771" rx="4.3" transform="translate(333.258 82.942)" fill="#fff" stroke="#fff" stroke-miterlimit="10" stroke-width="1"/>
    <rect id="Rectangle_36" data-name="Rectangle 36" width="21.92" height="10.229" rx="1.46" transform="translate(339.132 90.045)" fill="#9519c8" opacity="0.5"/>
    <rect id="Rectangle_37" data-name="Rectangle 37" width="21.92" height="10.229" rx="1.46" transform="translate(339.132 104.911)" fill="#9519c8" opacity="0.5"/>
    <rect id="Rectangle_38" data-name="Rectangle 38" width="7.191" height="3.156" rx="1.578" transform="translate(337.38 123.385)" fill="#9519c8"/>
    <rect id="Rectangle_39" data-name="Rectangle 39" width="7.191" height="3.156" rx="1.578" transform="translate(346.499 123.385)" fill="#9519c8"/>
    <rect id="Rectangle_40" data-name="Rectangle 40" width="7.191" height="3.156" rx="1.578" transform="translate(355.617 123.385)" fill="#9519c8"/>
    <rect id="Rectangle_41" data-name="Rectangle 41" width="33.668" height="45.771" rx="4.3" transform="translate(333.178 147.972)" fill="#fff" stroke="#fff" stroke-miterlimit="10" stroke-width="1"/>
    <rect id="Rectangle_42" data-name="Rectangle 42" width="10.061" height="10.229" rx="1.46" transform="translate(335.777 153.324)" fill="#9519c8" opacity="0.5"/>
    <rect id="Rectangle_43" data-name="Rectangle 43" width="20.595" height="2.256" rx="1.128" transform="translate(339.716 169.782)" fill="#9519c8"/>
    <rect id="Rectangle_44" data-name="Rectangle 44" width="20.595" height="2.256" rx="1.128" transform="translate(339.716 174.343)" fill="#9519c8"/>
    <rect id="Rectangle_45" data-name="Rectangle 45" width="20.595" height="2.256" rx="1.128" transform="translate(339.716 178.904)" fill="#9519c8"/>
    <path id="Path_252" data-name="Path 252" d="M733.518,376.162l-.515.248-4.176,2.008-.382.179a.206.206,0,0,1-.279-.111.223.223,0,0,1,0-.076v-1.187a.2.2,0,0,0-.2-.2H717.816a.206.206,0,0,1-.206-.2v-1.676a.206.206,0,0,1,.206-.2h10.16a.206.206,0,0,0,.2-.206v-1.214a.239.239,0,0,1,0-.076.206.206,0,0,1,.279-.107l.382.179L733,375.544l.515.252a.2.2,0,0,1,0,.366Z" transform="translate(-460.806 -238.911)" fill="#fff" stroke="#fff" stroke-miterlimit="10" stroke-width="1"/>
    <path id="Path_253" data-name="Path 253" d="M883.76,353.3l-.336.462-2.733,3.725-.24.332a.21.21,0,0,1-.3.034.182.182,0,0,1-.046-.061l-.557-1.046a.21.21,0,0,0-.279-.088l-8.969,4.775a.2.2,0,0,1-.275-.084l-.786-1.485a.2.2,0,0,1,.084-.275l8.969-4.767a.2.2,0,0,0,.084-.275l-.569-1.072a.133.133,0,0,1-.023-.073.2.2,0,0,1,.195-.225h.408l4.626-.168.573-.019a.2.2,0,0,1,.172.309Z" transform="translate(-554.548 -226.342)" fill="#fff" stroke="#fff" stroke-miterlimit="10" stroke-width="1"/>
    <path id="Path_254" data-name="Path 254" d="M883.519,392.213h-5.6a.2.2,0,0,1-.2-.218.169.169,0,0,1,.019-.073l.511-1.073a.2.2,0,0,0-.1-.271l-9.16-4.4a.206.206,0,0,1-.1-.275l.725-1.508a.2.2,0,0,1,.271-.1l9.16,4.4a.21.21,0,0,0,.275-.1l.527-1.1a.2.2,0,0,1,.34-.038l.256.317,2.874,3.634.355.45a.2.2,0,0,1-.16.336Z" transform="translate(-554.337 -245.691)" fill="#fff" stroke="#fff" stroke-miterlimit="10" stroke-width="1"/>
    <path id="Path_255" data-name="Path 255" d="M415.682,606.372l-.031,1.118L413.7,676.219H410.43l1.607-68.729.031-1.29Z" transform="translate(-253.783 -374.831)" fill="#504f60"/>
    <path id="Path_256" data-name="Path 256" d="M415.682,606.372l-.031,1.118L413.7,676.219H410.43l1.607-68.729.031-1.29Z" transform="translate(-253.783 -374.831)" opacity="0.1"/>
    <path id="Path_257" data-name="Path 257" d="M407.711,753.885l-2.45-.008-36.431-.077-1.939,0,1.031-3.187h39.531Z" transform="translate(-226.861 -464.122)" fill="#504f60"/>
    <path id="Path_258" data-name="Path 258" d="M418.285,606.372l-.03,1.118H414.64l.03-1.29Z" transform="translate(-256.386 -374.831)" opacity="0.1"/>
    <rect id="Rectangle_46" data-name="Rectangle 46" width="6.073" height="2.282" transform="translate(157.208 229.862)" fill="#504f60"/>
    <path id="Path_259" data-name="Path 259" d="M369.153,750.61l-.324,3.191-1.939,0,1.031-3.187Z" transform="translate(-226.861 -464.122)" opacity="0.1"/>
    <path id="Path_260" data-name="Path 260" d="M367.265,602.14l-.1.989-8.08,79.706-3.7-.172,8.515-79.534.1-.9Z" transform="translate(-219.744 -372.32)" fill="#504f60"/>
    <path id="Path_261" data-name="Path 261" d="M469.332,753.885l-2.45-.008-.332-3.267h2.523Z" transform="translate(-288.483 -464.122)" opacity="0.1"/>
    <path id="Path_262" data-name="Path 262" d="M464.745,682.663l-3.706.172-8.08-79.706-.1-.989,3.271.084.1.9Z" transform="translate(-280.018 -372.32)" fill="#504f60"/>
    <rect id="Rectangle_47" data-name="Rectangle 47" width="81.645" height="78.286" transform="translate(118.842 151.228)" fill="#fff"/>
    <rect id="Rectangle_48" data-name="Rectangle 48" width="117.557" height="78.286" rx="4.13" transform="translate(100.934 151.228)" fill="#fff"/>
    <path id="Path_263" data-name="Path 263" d="M462.113,346.221v18.9H458.93v-18.9a1.592,1.592,0,0,1,3.183,0Z" transform="translate(-300.859 -221.173)" fill="#504f60"/>
    <rect id="Rectangle_49" data-name="Rectangle 49" width="3.187" height="1.721" transform="translate(158.071 142.232)" opacity="0.1"/>
    <path id="Path_264" data-name="Path 264" d="M461.343,395.963v6.244H455.66v-6.244a.763.763,0,0,1,.763-.763h4.134a.763.763,0,0,1,.786.763Z" transform="translate(-298.837 -252.441)" fill="#504f60"/>
    <circle id="Ellipse_49" data-name="Ellipse 49" cx="1.206" cy="1.206" r="1.206" transform="translate(158.457 145.503)" opacity="0.1"/>
    <circle id="Ellipse_50" data-name="Ellipse 50" cx="1.206" cy="1.206" r="1.206" transform="translate(158.457 145.243)" fill="#3f3d56"/>
    <rect id="Rectangle_50" data-name="Rectangle 50" width="5.683" height="0.775" transform="translate(156.823 148.992)" opacity="0.1"/>
    <rect id="Rectangle_51" data-name="Rectangle 51" width="10.336" height="1.721" transform="translate(154.495 150.026)" opacity="0.1"/>
    <rect id="Rectangle_52" data-name="Rectangle 52" width="10.336" height="1.721" transform="translate(154.495 149.507)" fill="#504f60"/>
    <path id="Path_265" data-name="Path 265" d="M360.932,596H403.52a2.29,2.29,0,0,1,2.29,2.29H358.65a2.29,2.29,0,0,1,2.282-2.29Z" transform="translate(-221.766 -368.524)" opacity="0.1"/>
    <path id="Path_266" data-name="Path 266" d="M377.785,602.224l3.275-.084-.1.989H377.69Z" transform="translate(-233.539 -372.32)" opacity="0.1"/>
    <rect id="Rectangle_53" data-name="Rectangle 53" width="6.073" height="0.947" transform="translate(157.208 229.862)" opacity="0.1"/>
    <path id="Path_267" data-name="Path 267" d="M456.226,603.128h-3.267l-.1-.989,3.271.084Z" transform="translate(-280.018 -372.32)" opacity="0.1"/>
    <path id="Path_268" data-name="Path 268" d="M360.932,597.4H403.52a2.29,2.29,0,0,1,2.29,2.29H358.65a2.29,2.29,0,0,1,2.29-2.29Z" transform="translate(-221.766 -369.389)" fill="#504f60"/>
    <path id="Path_269" data-name="Path 269" d="M536.743,441.469a.569.569,0,0,1,.653.626,75.672,75.672,0,0,0,.4,16.149c.279,2.439.656,5.019,1.737,6.828a.576.576,0,0,1-.076.71,1.526,1.526,0,0,1-1.061.317l-17.034.1a.569.569,0,0,1-.557-.7c1.37-5.84,1.076-12.214.527-18.271-.271-2.981-.428-4.58,1.8-4.79,2.29-.206,4.58-.3,6.87-.492C530.548,441.893,534.953,441.763,536.743,441.469Z" transform="translate(-339.107 -281.046)" fill="#fff" stroke="#33313f" stroke-miterlimit="10" stroke-width="3"/>
    <path id="Path_270" data-name="Path 270" d="M523.776,533.159a.569.569,0,0,0-.653.626,75.431,75.431,0,0,1-.4,16.149c-.275,2.439-.653,5.019-1.733,6.832a.569.569,0,0,0,.076.706,1.527,1.527,0,0,0,1.061.317l17.034.1a.577.577,0,0,0,.557-.706c-1.37-5.84-1.076-12.214-.527-18.271.271-2.981.428-4.58-1.8-4.79s-4.58-.3-6.87-.492C529.971,533.583,525.566,533.453,523.776,533.159Z" transform="translate(-339.175 -337.74)" fill="#fff" stroke="#33313f" stroke-miterlimit="10" stroke-width="3"/>
    <path id="Path_271" data-name="Path 271" d="M535.62,558.841a50.525,50.525,0,0,1,5.939.073.561.561,0,0,1,.5.5l.187,1.561a.222.222,0,0,1-.046.2.21.21,0,0,1-.145.038c-.832.023-1.664-.072-2.492,0-.515.042-1.027.141-1.527.2a18.215,18.215,0,0,1-2.542.046,12.8,12.8,0,0,1-3.538-.435s.069-1.294.069-1.416c0-.6-.019-.657.6-.672Z" transform="translate(-346.015 -353.59)" fill="none" stroke="#33313f" stroke-linecap="round" stroke-miterlimit="10" stroke-width="2"/>
    <path id="Path_272" data-name="Path 272" d="M535.62,573.093a49.707,49.707,0,0,0,5.939-.076.561.561,0,0,0,.5-.5l.187-1.557a.23.23,0,0,0-.046-.206.21.21,0,0,0-.145-.038c-.832-.023-1.664.076-2.492,0-.515-.038-1.027-.137-1.527-.195a17.653,17.653,0,0,0-2.542-.046,12.8,12.8,0,0,0-3.538.435s.069,1.29.069,1.416c0,.6-.019.653.6.672Z" transform="translate(-346.015 -360.803)" fill="none" stroke="#33313f" stroke-linecap="round" stroke-miterlimit="10" stroke-width="2"/>
    <path id="Path_273" data-name="Path 273" d="M535.62,584.5a49.668,49.668,0,0,1,5.939.076.561.561,0,0,1,.5.5l.187,1.557a.23.23,0,0,1-.046.206.21.21,0,0,1-.145.038c-.832.023-1.664-.076-2.492,0-.515.038-1.027.141-1.527.2a18.224,18.224,0,0,1-2.542.042,12.805,12.805,0,0,1-3.538-.431s.069-1.294.069-1.42c0-.6-.019-.653.6-.668Z" transform="translate(-346.015 -369.456)" fill="none" stroke="#33313f" stroke-linecap="round" stroke-miterlimit="10" stroke-width="2"/>
    <path id="Path_274" data-name="Path 274" d="M542.215,499a2.524,2.524,0,0,1,.168,1.328.2.2,0,0,1-.027.1.206.206,0,0,1-.16.057l-3.626.141s.2-1.069.229-1.145c.126-.435.443-.321.851-.343Z" transform="translate(-350.102 -316.623)" fill="#fff" stroke="#33313f" stroke-linecap="round" stroke-miterlimit="10" stroke-width="2"/>
    <path id="Path_275" data-name="Path 275" d="M556.559,499a2.522,2.522,0,0,1,.164,1.328.192.192,0,0,1-.023.1.213.213,0,0,1-.16.057l-3.63.141s.206-1.069.233-1.145c.122-.435.439-.321.851-.343Z" transform="translate(-358.969 -316.623)" fill="#fff" stroke="#33313f" stroke-linecap="round" stroke-miterlimit="10" stroke-width="2"/>
    <path id="Path_276" data-name="Path 276" d="M538.413,451.258l.489,4.2a1.145,1.145,0,0,1-1.042,1.263,54.5,54.5,0,0,1-9.305-.061,1.145,1.145,0,0,1-1.034-1.092,16.3,16.3,0,0,0-.328-2.225c-.126-.763-.263-1.5.637-1.725a15.6,15.6,0,0,1,3.118-.084q1.771-.034,3.53-.1C534.806,451.433,538.413,451.239,538.413,451.258Z" transform="translate(-343.01 -287.102)" fill="none" stroke="#33313f" stroke-miterlimit="10" stroke-width="3"/>
    <path id="Path_277" data-name="Path 277" d="M538.4,481.877l.481-4.2a1.145,1.145,0,0,0-1.042-1.263,54.9,54.9,0,0,0-9.305.057,1.145,1.145,0,0,0-1.034,1.1,16.321,16.321,0,0,1-.328,2.225c-.126.763-.263,1.5.637,1.725a15.607,15.607,0,0,0,3.118.084c1.179.023,2.355.054,3.531.1C534.794,481.712,538.4,481.907,538.4,481.877Z" transform="translate(-342.997 -302.553)" fill="none" stroke="#33313f" stroke-miterlimit="10" stroke-width="3"/>
    <path id="Path_278" data-name="Path 278" d="M535.477,540.377q-.191,2.1-.24,4.2a19.873,19.873,0,0,1-4.164-.477.737.737,0,0,1-.683-.9c-.027-.87-.485-2.813.74-2.935C531.5,540.224,535.473,540.446,535.477,540.377Z" transform="translate(-344.978 -342.134)" fill="none" stroke="#33313f" stroke-linecap="round" stroke-miterlimit="10" stroke-width="2"/>
    <path id="Path_279" data-name="Path 279" d="M342.79,490.6a1.218,1.218,0,0,1,1.343,1.324,77.9,77.9,0,0,0,.481,15.347,19.638,19.638,0,0,0,1.5,6.4,1,1,0,0,1-.886,1.458h0l-16.9.1a.672.672,0,0,1-.66-.817c1.34-5.809,1.046-12.153.5-18.16-.275-2.981-.428-4.58,1.794-4.79,2.29-.2,4.58-.3,6.851-.492C337.294,490.927,340.76,490.82,342.79,490.6Z" transform="translate(-219.685 -311.424)" fill="#fff" stroke="#33313f" stroke-linecap="round" stroke-miterlimit="10" stroke-width="3"/>
    <path id="Path_280" data-name="Path 280" d="M424.2,490.349a.607.607,0,0,0-.695.672,75.7,75.7,0,0,1-.408,16.1c-.275,2.439-.653,5.008-1.729,6.821a.6.6,0,0,0,.16.79,1.6,1.6,0,0,0,.969.244l16.989.1a.611.611,0,0,0,.592-.763c-1.355-5.828-1.065-12.195-.515-18.225.271-2.981.428-4.58-1.794-4.79-2.29-.2-4.58-.3-6.87-.492C430.334,490.765,426.021,490.638,424.2,490.349Z" transform="translate(-277.58 -311.269)" fill="#fff" stroke="#33313f" stroke-miterlimit="10" stroke-width="3"/>
    <line id="Line_9" data-name="Line 9" x2="8.641" y2="11.527" transform="translate(112.987 182.549)" fill="#fff" stroke="#33313f" stroke-linecap="round" stroke-miterlimit="10" stroke-width="2"/>
    <line id="Line_10" data-name="Line 10" x1="8.355" y2="12.966" transform="translate(113.273 181.686)" fill="#fff" stroke="#33313f" stroke-linecap="round" stroke-miterlimit="10" stroke-width="2"/>
    <line id="Line_11" data-name="Line 11" x2="4.706" y2="6.279" transform="translate(151.548 183.091)" fill="#fff" stroke="#33313f" stroke-linecap="round" stroke-miterlimit="10" stroke-width="2"/>
    <line id="Line_12" data-name="Line 12" x1="4.55" y2="7.065" transform="translate(151.705 182.617)" fill="#fff" stroke="#33313f" stroke-linecap="round" stroke-miterlimit="10" stroke-width="2"/>
    <path id="Path_281" data-name="Path 281" d="M342.361,539.211a50.631,50.631,0,0,1,5.943.073.569.569,0,0,1,.5.5l.183,1.561a.24.24,0,0,1-.042.206.268.268,0,0,1-.145.038c-.832.023-1.668-.076-2.5,0-.515.038-1.023.137-1.527.195a18.224,18.224,0,0,1-2.542.046,12.761,12.761,0,0,1-3.534-.435c-.023,0,.069-1.29.069-1.416,0-.6-.023-.653.6-.672Z" transform="translate(-226.518 -341.452)" fill="none" stroke="#33313f" stroke-linecap="round" stroke-miterlimit="10" stroke-width="2"/>
    <path id="Path_282" data-name="Path 282" d="M437.476,524.111a49.759,49.759,0,0,1,5.943.076.561.561,0,0,1,.5.5l.183,1.557a.24.24,0,0,1-.042.206.214.214,0,0,1-.145.038c-.832.023-1.668-.076-2.5,0-.515.038-1.023.141-1.527.195a17.653,17.653,0,0,1-2.542.046,12.807,12.807,0,0,1-3.538-.435c-.019,0,.069-1.29.069-1.416,0-.6-.019-.653.6-.672Z" transform="translate(-285.328 -332.116)" fill="none" stroke="#33313f" stroke-linecap="round" stroke-miterlimit="10" stroke-width="2"/>
    <path id="Path_283" data-name="Path 283" d="M440.6,535.441a50.524,50.524,0,0,0-5.939.073.561.561,0,0,0-.5.5l-.176,1.557a.217.217,0,0,0,.042.206.21.21,0,0,0,.145.038c.832.023,1.664-.073,2.5,0,.515.038,1.023.141,1.527.2a18.865,18.865,0,0,0,2.542.046,12.777,12.777,0,0,0,3.538-.435c.019,0-.069-1.294-.069-1.416,0-.607.023-.657-.6-.672Z" transform="translate(-285.428 -339.121)" fill="none" stroke="#33313f" stroke-linecap="round" stroke-miterlimit="10" stroke-width="2"/>
    <path id="Path_284" data-name="Path 284" d="M386.63,527.924s5.615-.286,6.622,0" transform="translate(-256.154 -334.428)" fill="none" stroke="#33313f" stroke-miterlimit="10" stroke-width="3"/>
    <path id="Path_285" data-name="Path 285" d="M402.831,520.21s2.447,2.447,2.447,3.023-3.168,2.592-3.168,2.592" transform="translate(-265.726 -329.737)" fill="none" stroke="#33313f" stroke-miterlimit="10" stroke-width="3"/>
    <path id="Path_286" data-name="Path 286" d="M482.84,510.406s5.088-2.382,6.13-2.5" transform="translate(-315.643 -322.132)" fill="none" stroke="#33313f" stroke-miterlimit="10" stroke-width="3"/>
    <path id="Path_287" data-name="Path 287" d="M495.92,500.58s3.187,1.344,3.4,1.874-1.954,3.6-1.954,3.6" transform="translate(-323.73 -317.6)" fill="none" stroke="#33313f" stroke-miterlimit="10" stroke-width="3"/>
    <path id="Path_288" data-name="Path 288" d="M482.7,530.43s5.172,2.195,5.954,2.9" transform="translate(-315.556 -336.057)" fill="none" stroke="#33313f" stroke-miterlimit="10" stroke-width="3"/>
    <path id="Path_289" data-name="Path 289" d="M496.733,530.89s1.145,3.271.878,3.79-3.981.947-3.981.947" transform="translate(-322.315 -336.341)" fill="none" stroke="#33313f" stroke-miterlimit="10" stroke-width="3"/>
    <path id="Path_290" data-name="Path 290" d="M529.379,499a2.522,2.522,0,0,1,.164,1.328.2.2,0,0,1-.023.1.214.214,0,0,1-.16.057l-3.63.141s.206-1.069.233-1.145c.122-.435.443-.321.851-.343Z" transform="translate(-342.163 -316.623)" fill="#fff" stroke="#33313f" stroke-linecap="round" stroke-miterlimit="10" stroke-width="2"/>
    <path id="Path_291" data-name="Path 291" d="M310.122,562.01l1.282-1.195-1.145-.046-.6.92Z" transform="translate(-191.474 -346.74)" fill="#33313f"/>
    <path id="Path_292" data-name="Path 292" d="M286.7,571.484l1.359-1.744.3-.313,4.16-4.359,1.416-1.481.664-.08.954-.947.561.492-.927,1.084.015.569-1.447,1.569-4.084,4.435-.263.283-1.641,1.519Z" transform="translate(-177.278 -347.847)" fill="#65617d"/>
    <path id="Path_293" data-name="Path 293" d="M291.05,573.489l4.16-4.359,1.237,1.206-4.084,4.435Z" transform="translate(-179.967 -351.909)" fill="#33313f"/>
    <path id="Path_294" data-name="Path 294" d="M268.152,436.386a18.319,18.319,0,0,1-3.126-3.817,13.946,13.946,0,0,0-6.992-5.164v-.927l.13-.027-.057-.863h.057l-.149-2.29v-.019h0l-.756-11.363a17.338,17.338,0,0,1,2.092-14.565c4.782-6.989.3-13.691-4.2-16.313,0,0-2.092-11.069-.3-13.691a77.756,77.756,0,0,0-7.511-3.8c-.042-.137-.076-.275-.111-.42-.05-1.03-.115-2.061-.172-3.092a11.235,11.235,0,0,1,.294-1.588c.057-.217.122-.435.191-.66a11.366,11.366,0,0,0,7.309-10.538,11.069,11.069,0,0,0-.71-3.908,4.912,4.912,0,0,0,.546-1.275,5.043,5.043,0,0,0-.71-3.634,13.558,13.558,0,0,0-6.355-5.908c-3.107-1.26-7.782-.962-11.019-.573-1.817.218-3.889.824-4.546,2.489a17.342,17.342,0,0,0-.412,1.908c-.679,2.542-3.614,3.725-5.427,5.672a13.5,13.5,0,0,0-2.824,6.305,57.715,57.715,0,0,0-1.05,19.79c.183,1.527.427,3.034.687,4.546-1.092,1.527-2.076,4.225-1.626,8.912L217.82,398.47l-1.492,9.9A8.627,8.627,0,0,0,219,415.947a66.487,66.487,0,0,1,6.763,8.435,20.019,20.019,0,0,0-1.088,6.714c.038,1.038.1,2.042.168,3a26.464,26.464,0,0,0,1.145,5.969c.42,4.069,1.248,9.271,2.87,12.6l.6,17.767s-.9,16.313-2.672,19.515,3.882,30.294,3.882,30.294v3.786l-.954,2.8-.24-.179c-4.481,5.534,0,7.573,0,7.573s1.221.057,3.172.134a3.572,3.572,0,0,0,1.908,3.947s25.393,1.164,29.878,0,3.286-5.244.893-4.962a10.865,10.865,0,0,1-3.576-.466c1.393-1.622.279-3.817-1.5-3.611-2.389.29-7.767-1.824-7.767-1.824l-.027.034a4.021,4.021,0,0,0-.527-.16,59.828,59.828,0,0,1-5.912-1.653c-1.145-2.454-3.817-9.05-1.908-14.164a25.3,25.3,0,0,0,1.145-8.374,95.041,95.041,0,0,1,3.935-26.588l3.584-12.214s5.08-14.859,5.378-18.935l-.019-5.931c4.2,2.672,7.538,1.87,9.668.622a2.29,2.29,0,0,0,.359-3.683ZM228.278,405.47c.1-.427.187-.893.26-1.385.7,0,1.408,0,2.111-.023a10.752,10.752,0,0,1,1.061,5.725c-1.618-.5-4.038-1.725-3.431-4.3Z" transform="translate(-150.791 -213.128)" fill="url(#linear-gradient)"/>
    <path id="Path_295" data-name="Path 295" d="M253.385,828.247l-1.145,3.435,3.737,3.737,12.363,2.874,8.912-.863-.576-3.164h0a3.817,3.817,0,0,0-2.832-2.782c-3.664-.863-10.649-2.825-12.118-5.553Z" transform="translate(-173.058 -518.77)" fill="#db8b8b"/>
    <path id="Path_296" data-name="Path 296" d="M253.385,828.247l-1.145,3.435,3.737,3.737,12.363,2.874,8.912-.863-.576-3.164h0a3.817,3.817,0,0,0-2.832-2.782c-3.664-.863-10.649-2.825-12.118-5.553Z" transform="translate(-173.058 -518.77)" opacity="0.1"/>
    <path id="Path_297" data-name="Path 297" d="M271.262,844.488l-1.725-2.29,1.725-2.672s5.172,2.088,7.473,1.8,3.435,3.737-.863,4.885-28.748,0-28.748,0-4.313-2.011,0-7.473l3.737,2.874s6.324,3.435,9.489,2.874Z" transform="translate(-169.947 -526.691)" fill="#2e3037"/>
    <path id="Path_298" data-name="Path 298" d="M290.023,847.992l-8.912.863-12.363-2.878L265,842.24l.305-.912.427-1.282.42-1.256,8.336-2.29a5.153,5.153,0,0,0,1.691,1.691c2.706,1.851,7.573,3.191,10.427,3.859.118.031.24.065.355.107a3.787,3.787,0,0,1,2.477,2.672Z" transform="translate(-180.948 -525.306)" fill="#db8b8b"/>
    <path id="Path_299" data-name="Path 299" d="M290.023,855.814l-8.912.863L268.748,853.8,265,850.062l.305-.912,3.435,2.637s6.328,3.435,9.488,2.874h8.909l-1.725-2.29,1.55-2.393a3.787,3.787,0,0,1,2.477,2.672Z" transform="translate(-180.948 -533.128)" opacity="0.1"/>
    <path id="Path_300" data-name="Path 300" d="M284.032,855.038l-1.725-2.29,1.725-2.672s5.176,2.088,7.473,1.8,3.435,3.737-.859,4.889-28.752,0-28.752,0-4.313-2.015,0-7.477l3.737,2.874s6.328,3.435,9.488,2.878Z" transform="translate(-177.843 -533.214)" fill="#2e3037"/>
    <path id="Path_301" data-name="Path 301" d="M281.848,402.8s-13.8,1.435-11.786-4.313a10.305,10.305,0,0,0,.424-5.076,14.088,14.088,0,0,0-2.435-5.847l12.935,2.012a16.15,16.15,0,0,0-1.752,4.153C277.691,399.827,281.848,402.8,281.848,402.8Z" transform="translate(-182.834 -247.717)" fill="#db8b8b"/>
    <path id="Path_302" data-name="Path 302" d="M242.44,599.21s.286,12.362,3.16,18.4l.576,17.534s-.863,16.1-2.588,19.263,3.737,29.9,3.737,29.9v4.6s9.2,3.435,11.786-.576l-2.588-34.21,1.145-47.435Z" transform="translate(-166.999 -378.585)" fill="#35323e"/>
    <path id="Path_303" data-name="Path 303" d="M242.43,599.21s.286,12.362,3.16,18.4l.576,17.534s-.863,16.1-2.588,19.263,3.737,29.9,3.737,29.9v4.6s9.2,3.435,11.786-.576l-2.588-34.21,1.145-47.435Z" transform="translate(-166.993 -378.585)" opacity="0.1"/>
    <path id="Path_304" data-name="Path 304" d="M222.11,495.27l-1.725,4.6-1.435,9.775a8.645,8.645,0,0,0,2.588,7.473c3.435,3.435,8.05,10.637,8.05,10.637l5.462-16.386s-5.462-.863-4.58-4.6.573-10.637.573-10.637Z" transform="translate(-152.42 -314.317)" fill="#9519c8"/>
    <path id="Path_305" data-name="Path 305" d="M277.4,838.183c-3.691,5.805-9.428,2.515-10.447,1.863l.42-1.256,8.336-2.29A5.149,5.149,0,0,0,277.4,838.183Z" transform="translate(-182.154 -525.306)" opacity="0.1"/>
    <path id="Path_306" data-name="Path 306" d="M272.37,576.892c-.29,4.023-5.176,18.7-5.176,18.7l-3.435,12.065a95.913,95.913,0,0,0-3.809,26.229,25.619,25.619,0,0,1-1.1,8.263c-2.29,6.324,2.29,14.95,2.29,14.95-4.023,7.187-10.924,2.29-10.924,2.29v-4.58s-5.447-25.023-4.008-29.909,2.015-18.114,2.015-18.114V582.93a27.061,27.061,0,0,1-7.889-17.176c-.069-.943-.126-1.931-.16-2.958-.233-6.488,4.2-14.092,5.931-16.794.42-.656.679-1.023.679-1.023l25.378,10.069.057.023v3.157Z" transform="translate(-165.593 -345.053)" fill="#35323e"/>
    <path id="Path_307" data-name="Path 307" d="M280.985,389.571a16.153,16.153,0,0,0-1.752,4.153,11.229,11.229,0,0,1-8.748-.317,14.088,14.088,0,0,0-2.435-5.847Z" transform="translate(-182.834 -247.717)" opacity="0.1"/>
    <circle id="Ellipse_51" data-name="Ellipse 51" cx="11.214" cy="11.214" r="11.214" transform="translate(81.189 123.74)" fill="#db8b8b"/>
    <path id="Path_308" data-name="Path 308" d="M280.305,558.205l-.126.023C268.126,560.705,253,548.144,253,548.144A14.5,14.5,0,0,0,254.046,546c.42-.656.679-1.023.679-1.023L280.1,555.049l.065,1Z" transform="translate(-173.528 -345.053)" opacity="0.1"/>
    <path id="Path_309" data-name="Path 309" d="M258.524,415.838s-16.1-9.775-21.275-5.752l-7.187,9.2s-4.6,1.439-3.737,10.637L222.89,446.6l10.347,2.588s6.038,5.748,1.145,14.088c0,0,15.237,12.649,27.313,10.061l-.87-13.5a17.506,17.506,0,0,1,2.011-14.374c4.6-6.9.286-13.512-4.023-16.1C258.81,429.35,256.8,418.422,258.524,415.838Z" transform="translate(-154.911 -261.045)" fill="#9519c8"/>
    <path id="Path_310" data-name="Path 310" d="M313.732,580.38s6.038,1.145,8.912,5.752a17.887,17.887,0,0,0,3.011,3.76,2.29,2.29,0,0,1-.359,3.634c-2.29,1.374-6,2.218-10.687-1.645C306.545,585.269,313.732,580.38,313.732,580.38Z" transform="translate(-209.257 -366.942)" fill="#db8b8b"/>
    <path id="Path_311" data-name="Path 311" d="M276.982,440.654s-5.748-.576-7.187,14.374-3.737,18.4-3.737,18.4-1.439,7.763,2.012,12.363S278.13,500.2,278.13,500.2s7.191,2.015,8.626-5.176l-8.912-16.672s-1.435-5.752,2.011-9.775S285.894,437.791,276.982,440.654Z" transform="translate(-181.418 -280.414)" opacity="0.1"/>
    <path id="Path_312" data-name="Path 312" d="M278.492,438.43s-5.752-.576-7.187,14.374-3.737,18.4-3.737,18.4-1.439,7.771,2.011,12.351,10.061,14.374,10.061,14.374,7.187,2.015,8.626-5.172l-8.912-16.676s-1.439-5.752,2.011-9.775S287.4,435.552,278.492,438.43Z" transform="translate(-182.352 -279.037)" fill="#9519c8"/>
    <path id="Path_313" data-name="Path 313" d="M302.691,467s.573,8.912-2.015,13.8-2.588,11.21,0,14.66" transform="translate(-201.807 -296.837)" opacity="0.1"/>
    <path id="Path_314" data-name="Path 314" d="M283.057,430.5s-2.29-2.29-8.912-2.588-9.485-2.29-9.485-2.29" transform="translate(-180.738 -271.251)" opacity="0.1"/>
    <path id="Path_315" data-name="Path 315" d="M241.834,336.251c-1.748.214-3.744.813-4.374,2.458a16.893,16.893,0,0,0-.4,1.908c-.653,2.511-3.477,3.68-5.221,5.6a13.5,13.5,0,0,0-2.718,6.221,58.447,58.447,0,0,0-1.027,19.519c.561,4.767,1.706,9.458,2.031,14.248s-.267,9.828-2.885,13.851c-1.145,1.733-2.611,3.252-3.408,5.156,1.649,1.336,3.924,1.527,6.046,1.6q3.71.126,7.42,0a7.914,7.914,0,0,0,3.771-.786,5.843,5.843,0,0,0,1.981-2.122,15.2,15.2,0,0,0,1.71-8.073c-.061-2.786-.5-5.553-.553-8.34a7.287,7.287,0,0,1,.966-4.374,14.241,14.241,0,0,1,2.408-2.229c3.08-2.725,4.134-7.1,4.237-11.21s-.573-8.229-.225-12.324c.134-1.607.733-3.531,2.313-3.844a8.151,8.151,0,0,0,1.5-.191c1.267-.485,1.145-2.271,1.5-3.576.408-1.469,1.66-2.6,2.011-4.084.828-3.477-3.6-7.633-6.488-8.84C249.433,335.568,244.933,335.87,241.834,336.251Z" transform="translate(-155.492 -215.787)" opacity="0.1"/>
    <path id="Path_316" data-name="Path 316" d="M241.1,334.753c-1.748.214-3.744.813-4.374,2.454a17.552,17.552,0,0,0-.382,1.908c-.653,2.511-3.481,3.679-5.225,5.6a13.468,13.468,0,0,0-2.718,6.221,58.522,58.522,0,0,0-1.008,19.531c.561,4.767,1.706,9.462,2.027,14.248s-.263,9.828-2.882,13.851c-1.145,1.733-2.611,3.252-3.408,5.157,1.649,1.34,3.924,1.527,6.046,1.6q3.71.126,7.42,0a7.869,7.869,0,0,0,3.771-.786,5.774,5.774,0,0,0,1.977-2.122,15.208,15.208,0,0,0,1.714-8.073c-.057-2.786-.5-5.553-.553-8.34a7.293,7.293,0,0,1,.962-4.37,14.1,14.1,0,0,1,2.412-2.229c3.076-2.729,4.134-7.1,4.237-11.214s-.576-8.229-.229-12.324c.137-1.6.737-3.531,2.313-3.84a7.833,7.833,0,0,0,1.5-.195c1.267-.485,1.145-2.267,1.5-3.576.4-1.469,1.656-2.6,2.011-4.08.828-3.481-3.6-7.634-6.489-8.843C248.71,334.073,244.214,334.367,241.1,334.753Z" transform="translate(-155.059 -214.86)" fill="#35323e"/>
  </g>
</svg>
