<svg xmlns="http://www.w3.org/2000/svg" viewBox="0 0 121 121"><defs><style>.cls-1{fill:#e4e8f8}.cls-2{fill:none;stroke:#204ecf;stroke-linejoin:round}</style></defs><g id="Layer_2" data-name="Layer 2"><g id="Icons"><path class="cls-1" d="M.5 110.88h90v9.62H.5zM.5 19.5H17l-1.31 4.38L.5 19.5zM80.38 26.24a34.26 34.26 0 1 0 10.12 67V27.77a34.2 34.2 0 0 0-10.12-1.53zm-25 49.86a2 2 0 1 1 2-2 2 2 0 0 1-1.97 2zm0-12.37a2 2 0 1 1 2-2 2 2 0 0 1-1.97 2zm10-11a2 2 0 1 1 0-2.78 2 2 0 0 1 .08 2.77zm-.7-14a2 2 0 1 1 2.79 0 2 2 0 0 1-2.71-.02zm3.45 37.37a2 2 0 1 1 2-2 2 2 0 0 1-2 2zm6.68-42.79a2 2 0 1 1 2-2 2 2 0 0 1-2 2zm3.83 58.32a2 2 0 1 1 2-2 2 2 0 0 1-2 2z"/><path class="cls-2" d="M90.5 99.34v21.16H.5v-101l19-19h71v14.56"/><path class="cls-2" d="M19.5.5v19H.5M36.25 43.5H10M40.25 35.5H10M19.63 69.5H10M33.83 61.5H10M24.46 95.5H10M42.83 87.5H10"/><circle class="cls-2" cx="80.38" cy="60.5" r="40.13"/><path class="cls-2" d="M90.5 29.75v61.5M67.55 38.71l11.54 11.55v7.75h-8.34l-5.29-5.29M57.38 61.76h26v3.75H64.07l-7.25 7.25M83.38 58.01V47.63l-8.57-8.56v-6.06"/><circle class="cls-2" cx="74.81" cy="31.34" r="1.97"/><path class="cls-2" d="M83.38 72.76v5.17l-4.74 4.73v5.03"/><circle class="cls-2" cx="78.64" cy="89.66" r="1.97"/><circle class="cls-2" cx="55.41" cy="61.76" r="1.97"/><circle class="cls-2" cx="55.41" cy="74.13" r="1.97"/><circle class="cls-2" cx="68.13" cy="74.13" r="1.97"/><circle class="cls-2" cx="66.15" cy="37.32" r="1.97"/><circle class="cls-2" cx="64.07" cy="51.33" r="1.97"/><path class="cls-2" d="M83.38 69.51H72.84l-3.28 3.28"/></g></g></svg>