<svg id="undraw_journey_lwlj" xmlns="http://www.w3.org/2000/svg" width="443.48" height="252.813" viewBox="0 0 443.48 252.813">
  <circle id="Ellipse_78" data-name="Ellipse 78" cx="33.573" cy="33.573" r="33.573" transform="translate(63.243 50.174)" fill="#ff6584"/>
  <path id="Path_351" data-name="Path 351" d="M476.213,409.249a68.013,68.013,0,0,1-6.219,4.97,78.777,78.777,0,0,1-16.564,8.9c-24.341-.586-60.124-3.572-105.291-5.165q-5.054-1.727-10.337-3.74-6.992-2.664-14.386-5.856a265.873,265.873,0,0,0-62.31-18.032q-6.711-1.107-13.386-1.9c-94.013-11.243-180.71,21.791-190.751,25.785H56l6.176-11.961L167.26,198.725l24.575,63.094,7.843,20.14L221.294,252.3l11.161-15.315,50.828,58.273,14.366-31.727L397.113,344.7l5.547,4.525,5.614,4.583,1.788,1.46,53.175,43.4Z" transform="translate(-46.631 -170.413)" fill="#f2f2f2"/>
  <path id="Path_352" data-name="Path 352" d="M285,142.775l10.15-22.252,14.054,32.4L297.1,129.5Z" transform="translate(-173.74 -73.472)" opacity="0.1"/>
  <path id="Path_353" data-name="Path 353" d="M485.467,520.306q-6.711-1.107-13.386-1.9L424.04,411.935Z" transform="translate(-270.993 -300.389)" opacity="0.1"/>
  <path id="Path_354" data-name="Path 354" d="M447.411,196.2l11.161-8.678,50.75,58.558-51.531-49.97Z" transform="translate(-272.747 -114.316)" opacity="0.1"/>
  <path id="Path_355" data-name="Path 355" d="M606.2,319.789l101.424,97.1-13.873,3.272Z" transform="translate(-369.545 -194.947)" opacity="0.1"/>
  <path id="Path_356" data-name="Path 356" d="M475.48,699.713c0,7.562-12.867,9.284-36.681,8.71-24.341-.586-60.124-3.572-105.291-5.165-17.083-.6-35.514-1.007-55.173-1.007C155.87,702.25,32,717.932,32,699.713c0-4.294,5.512-8.393,15.545-12.157,29.748-11.157,99.229-19.328,182.467-20.644q5.68-.094,11.442-.137,6.1-.053,12.285-.051c33.093,0,64.5,1.077,92.7,3.01.09.008.176.016.265.02q3.4.234,6.726.484,3.636.275,7.195.566c.488.039.976.078,1.46.121.351.027.7.059,1.05.09.64.051,1.28.105,1.913.164a.345.345,0,0,1,.066,0l3.467.3c.121.012.242.023.363.031,33.359,3.025,60.928,7.324,79.658,12.442C465.744,688.641,475.48,694.005,475.48,699.713Z" transform="translate(-32 -455.712)" fill="#3f3d56"/>
  <path id="Path_357" data-name="Path 357" d="M102.887,584.384c0,24.991,15.678,45.214,35.053,45.214" transform="translate(-75.213 -405.516)" fill="#3f3d56"/>
  <path id="Path_358" data-name="Path 358" d="M192.678,628.8c0-25.272,17.5-45.722,39.117-45.722" transform="translate(-129.951 -404.723)" fill="#9519c8"/>
  <path id="Path_359" data-name="Path 359" d="M135.42,590.188c0,23.739,10,42.948,22.353,42.948" transform="translate(-95.046 -409.054)" fill="#9519c8"/>
  <path id="Path_360" data-name="Path 360" d="M192.678,608.972c0-32.292,20.222-58.422,45.214-58.422" transform="translate(-129.951 -384.89)" fill="#3f3d56"/>
  <path id="Path_361" data-name="Path 361" d="M173.788,696.823s4.971-.153,6.469-1.22,7.647-2.341,8.018-.63,7.471,8.51,1.858,8.555-13.041-.874-14.536-1.785S173.788,696.823,173.788,696.823Z" transform="translate(-118.436 -472.423)" fill="#a8a8a8"/>
  <path id="Path_362" data-name="Path 362" d="M190.234,707.118c-5.612.045-13.041-.874-14.536-1.785-1.139-.694-1.593-3.183-1.744-4.331l-.166.007s.315,4.009,1.81,4.92,8.924,1.83,14.536,1.785c1.62-.013,2.18-.59,2.149-1.443C192.058,706.786,191.44,707.108,190.234,707.118Z" transform="translate(-118.436 -476.607)" opacity="0.2"/>
  <path id="Path_363" data-name="Path 363" d="M794.887,575.384c0,24.991,15.678,45.214,35.053,45.214Z" transform="translate(-497.065 -400.03)" fill="#3f3d56"/>
  <path id="Path_364" data-name="Path 364" d="M884.678,619.8c0-25.272,17.5-45.722,39.117-45.722Z" transform="translate(-551.803 -399.236)" fill="#9519c8"/>
  <path id="Path_365" data-name="Path 365" d="M827.42,581.188c0,23.739,10,42.948,22.353,42.948Z" transform="translate(-516.898 -403.567)" fill="#9519c8"/>
  <path id="Path_366" data-name="Path 366" d="M884.678,599.972c0-32.292,20.222-58.422,45.214-58.422Z" transform="translate(-551.803 -379.404)" fill="#3f3d56"/>
  <path id="Path_367" data-name="Path 367" d="M865.788,687.824s4.971-.153,6.469-1.22,7.647-2.341,8.018-.63,7.471,8.51,1.858,8.555-13.041-.874-14.536-1.785S865.788,687.824,865.788,687.824Z" transform="translate(-540.288 -466.936)" fill="#a8a8a8"/>
  <path id="Path_368" data-name="Path 368" d="M882.234,698.118c-5.612.045-13.041-.874-14.536-1.785-1.139-.694-1.593-3.183-1.744-4.331l-.166.007s.315,4.009,1.81,4.92,8.924,1.83,14.536,1.785c1.62-.013,2.18-.59,2.149-1.443C884.058,697.786,883.44,698.108,882.234,698.118Z" transform="translate(-540.288 -471.121)" opacity="0.2"/>
  <rect id="Rectangle_54" data-name="Rectangle 54" width="7.027" height="12.526" transform="translate(187.776 171.957)" fill="#3f3d56"/>
  <circle id="Ellipse_79" data-name="Ellipse 79" cx="1.375" cy="1.375" r="1.375" transform="translate(189.915 173.943)" fill="#f2f2f2"/>
  <path id="Path_369" data-name="Path 369" d="M523.257,538.593s-2.139,12.4,1.711,12.832.428-13.26.428-13.26Z" transform="translate(-331.116 -377.34)" fill="#ffb9b9"/>
  <path id="Path_370" data-name="Path 370" d="M525.387,430.788s-4.491,42.56-3.208,43.2,4.705,1.5,5.347.855,3.208-26.948,3.208-26.948l-1.925-13.688Z" transform="translate(-330.679 -311.882)" fill="#575a89"/>
  <path id="Path_371" data-name="Path 371" d="M525.387,430.788s-4.491,42.56-3.208,43.2,4.705,1.5,5.347.855,3.208-26.948,3.208-26.948l-1.925-13.688Z" transform="translate(-330.679 -311.882)" opacity="0.1"/>
  <rect id="Rectangle_55" data-name="Rectangle 55" width="13.474" height="14.543" transform="translate(202.942 99.765)" fill="#2f2e41"/>
  <path id="Path_372" data-name="Path 372" d="M553.1,398.465s-.428,9.41-3.422,10.052,2.78,11.549,2.78,11.549l8.983-.855,2.139-12.832s-4.919-.856-3.208-7.486Z" transform="translate(-347.06 -292.177)" fill="#ffb9b9"/>
  <path id="Path_373" data-name="Path 373" d="M553.1,398.465s-.428,9.41-3.422,10.052,2.78,11.549,2.78,11.549l8.983-.855,2.139-12.832s-4.919-.856-3.208-7.486Z" transform="translate(-347.06 -292.177)" opacity="0.1"/>
  <path id="Path_374" data-name="Path 374" d="M528.888,546.493l.641,3.636,3.85-.855-.856-3.636Z" transform="translate(-322.417 -332.627)" fill="#ffb9b9"/>
  <path id="Path_375" data-name="Path 375" d="M558.111,533.585l-1.283,3.85,4.064,2.139.214-3.208Z" transform="translate(-339.449 -325.28)" fill="#ffb9b9"/>
  <path id="Path_376" data-name="Path 376" d="M542.809,511.2s-5.133,14.971-4.064,22.029,5.347,40.635,5.347,40.635,4.919,3.208,7.913-.428l-2.139-28.659s.428-17.323,2.139-15.613,8.341,21.815,8.341,21.815l-1.283,18.179s.642,5.561,4.491,3.208l5.347-20.1s-1.711-26.948-2.567-28.017-6.416-13.474-6.416-13.474Z" transform="translate(-340.829 -360.642)" fill="#2f2e41"/>
  <circle id="Ellipse_80" data-name="Ellipse 80" cx="6.202" cy="6.202" r="6.202" transform="translate(204.225 98.054)" fill="#ffb9b9"/>
  <path id="Path_377" data-name="Path 377" d="M548.516,430.094s2.353,3.422,5.347,1.069,4.705-2.566,4.705-2.566l3.636,2.139-.855,8.341,1.283,23.1s-15.613,1.283-16.468-.428,1.069-8.983,1.069-8.983l-2.78-15.613v-7.058Z" transform="translate(-344.397 -310.546)" fill="#9519c8"/>
  <path id="Path_378" data-name="Path 378" d="M543.416,429.6s-3.85-11.763-5.133-11.977-4.919,2.353-4.919,2.353-5.347,1.711-5.347,2.78.856,1.069.856,1.069l2.994,5.775s1.283,5.133.855,8.555a34.413,34.413,0,0,0-.214,6.2s-4.705,28.231-2.353,29.087,2.353,1.711,2.353,1.711,3.422,1.925,4.063,1.069,6.844-37.641,6.844-37.641S546.624,432.377,543.416,429.6Z" transform="translate(-334.378 -303.847)" fill="#575a89"/>
  <path id="Path_379" data-name="Path 379" d="M567.6,428.818s1.925-4.491.855-7.486a2.692,2.692,0,0,0,1.5-.855c.428-.642,0-3.85,1.069-4.064s8.983,0,9.41.428a25.218,25.218,0,0,1,1.711,3.422H581.5l-4.705,7.7s2.353,14.543,1.925,16.9,6.2,12.191,7.058,12.832,4.705,10.907,2.994,11.977-16.682,7.913-17.324,4.491-5.133-23.954-5.133-23.954-.214-11.335.428-14.115A52.448,52.448,0,0,0,567.6,428.818Z" transform="translate(-357.703 -303.068)" fill="#575a89"/>
  <path id="Path_380" data-name="Path 380" d="M592.285,535.306s-4.491,14.757,0,14.116,3.422-14.543,3.422-14.543Z" transform="translate(-372.34 -375.337)" fill="#ffb9b9"/>
  <path id="Path_381" data-name="Path 381" d="M557.382,680s3.546,1.013,3.292,3.292a3.792,3.792,0,0,1-2.279,3.039,2.289,2.289,0,0,0-1.013,2.279c.253,1.52-2.026,3.8-5.825,2.786s-3.039-2.026-3.039-2.026a4.4,4.4,0,0,1,1.773-2.786c1.52-1.013,3.293-4.559,3.293-4.812s.507-2.026.507-2.026S556.116,678.485,557.382,680Z" transform="translate(-346.838 -463.351)" fill="#2f2e41"/>
  <path id="Path_382" data-name="Path 382" d="M585.6,668.553s-3.85,1.711-2.994,3.85,3.636,5.133,4.063,8.341,4.064,5.988,6.63,4.277-.428-5.133-.428-5.133-3.208-5.988-3.422-7.272.428-2.566-.855-2.994S585.6,668.553,585.6,668.553Z" transform="translate(-367.582 -456.826)" fill="#2f2e41"/>
  <path id="Path_383" data-name="Path 383" d="M597.131,429.9s-.535-2.46.107-.962,5.347,19.676,1.069,30.584c0,0-.428,13.474-.856,13.474s-5.561-.214-5.347-1.711.642-25.665.642-27.162.748-11.228.748-11.228Z" transform="translate(-373.443 -310.459)" opacity="0.1"/>
  <path id="Path_384" data-name="Path 384" d="M596.178,422.571a12.928,12.928,0,0,1,1.711,2.78c.642,1.5,5.347,19.676,1.069,30.584,0,0-.428,13.474-.855,13.474s-5.561-.214-5.347-1.711.642-25.665.642-27.162-1.283-11.549-1.283-11.549Z" transform="translate(-373.453 -306.872)" fill="#575a89"/>
  <path id="Path_385" data-name="Path 385" d="M544.679,364.574c-2.244.7-3.92,2.535-5.481,4.293a9.093,9.093,0,0,0-1.53,2.094,8.432,8.432,0,0,0-.618,3.079q-.156,2.454-.1,4.916a14.123,14.123,0,0,1-.351,4.68,32.092,32.092,0,0,1-2.108,4.036,8.462,8.462,0,0,0-.328,7.04c.542,1.22,1.418,2.259,2.073,3.422a10.6,10.6,0,0,1,1.218,6.817l3.08-3.99c1.973-2.555,4.007-5.248,4.562-8.428.8-4.613-1.656-9.13-2.141-13.787a5.644,5.644,0,0,1,.645-3.78c1.085-1.593,3.445-2.156,4.1-3.969.094.759,4.644,3.178,5.191,2.708a5.665,5.665,0,0,1-.859,5.471c-.44.547-.982,1.007-1.411,1.562a7.41,7.41,0,0,0-1.208,5.189c.157,1.811.678,3.57.954,5.368a39.867,39.867,0,0,1,.333,5.4c.02,1.249-.014,2.643-.89,3.534a10.7,10.7,0,0,0,3.85-2.359,19.192,19.192,0,0,1,1.92-1.82c1.378-.994,3.244-1.289,4.368-2.562a5.26,5.26,0,0,0,.928-4.3c-.236-1.5-.81-2.924-1.1-4.413a11.854,11.854,0,0,1,.3-5.693,17.635,17.635,0,0,0,1.142-4.031c.163-2.854-2.037-5.24-4.153-7.162C553.891,365,548.983,363.228,544.679,364.574Z" transform="translate(-337.748 -271.237)" fill="#2f2e41"/>
  <path id="Path_386" data-name="Path 386" d="M766.975,182.424a46.393,46.393,0,0,1-9.078,1.735c-10.477,1.257-24.837,1.7-24.837,1.7s-73.793,6.121-129.1-16.642c0,0-8.045-4.219-.572-9.894a24.119,24.119,0,0,1,3.649-2.228s.031-.031.092-.09a20.3,20.3,0,0,1,16.333-5.168l145.26,23.5S774.026,179.819,766.975,182.424Z" transform="translate(-378.386 -141.68)" fill="#f2f2f2"/>
  <path id="Path_387" data-name="Path 387" d="M953.25,169.6l30.411-21.577,13.4,2.318L983.94,173.161S953.6,173.4,953.25,169.6Z" transform="translate(-593.606 -139.505)" fill="#f2f2f2"/>
  <path id="Path_388" data-name="Path 388" d="M725.129,16.988,785.7,0l9.765,2.04L768.106,14.349l-8.553,9.568Z" transform="translate(-442.048)" fill="#f2f2f2"/>
  <path id="Path_389" data-name="Path 389" d="M757.9,196.236c-10.477,1.257-24.837,1.7-24.837,1.7s-73.793,6.121-129.1-16.642c0,0-8.045-4.219-.572-9.894l.025.1s11.934,8.066,68.956,14.8Z" transform="translate(-378.386 -153.757)" fill="#f2f2f2"/>
  <path id="Path_390" data-name="Path 390" d="M978.994,228.7l27.083,11.057,6.8-.755-16.2-12.174S977.088,222.649,978.994,228.7Z" transform="translate(-609.22 -186.688)" fill="#f2f2f2"/>
  <path id="Path_391" data-name="Path 391" d="M624.028,165.767c-1.293.023-4.253-2.145-6.094-3.6a19.337,19.337,0,0,1,2.742-2.113c1.483,1.139,4.124,2.982,5.592,2.917C628.387,162.873,625.973,165.734,624.028,165.767Z" transform="translate(-389.193 -146.837)" fill="#f2f2f2"/>
  <path id="Path_392" data-name="Path 392" d="M824.156,263.506l-17.387.909L757.884,231.45l-9.075-6.12-4.411-2.974C752.669,215.366,786.41,225,786.41,225a2.975,2.975,0,0,1,.822,2.451,15.092,15.092,0,0,1-1.275,4.866c-.082.189-.132.3-.132.3Z" transform="translate(-466.287 -183.269)" fill="#f2f2f2"/>
  <path id="Path_393" data-name="Path 393" d="M766.975,182.424a46.393,46.393,0,0,1-9.078,1.735c-10.477,1.257-24.837,1.7-24.837,1.7s-73.793,6.121-129.1-16.642c0,0-8.045-4.219-.572-9.894a24.119,24.119,0,0,1,3.649-2.228s.031-.031.092-.09a20.3,20.3,0,0,1,16.333-5.168l145.26,23.5S774.026,179.819,766.975,182.424Z" transform="translate(-378.386 -141.68)" fill="#3f3d56"/>
  <path id="Path_394" data-name="Path 394" d="M953.25,169.6l30.411-21.577,13.4,2.318L983.94,173.161S953.6,173.4,953.25,169.6Z" transform="translate(-593.606 -139.505)" fill="#3f3d56"/>
  <path id="Path_395" data-name="Path 395" d="M725.129,16.988,785.7,0l9.765,2.04L768.106,14.349l-8.553,9.568Z" transform="translate(-442.048)" fill="#3f3d56"/>
  <path id="Path_396" data-name="Path 396" d="M757.9,196.236c-10.477,1.257-24.837,1.7-24.837,1.7s-73.793,6.121-129.1-16.642c0,0-8.045-4.219-.572-9.894l.025.1s11.934,8.066,68.956,14.8Z" transform="translate(-378.386 -153.757)" fill="#9519c8"/>
  <path id="Path_397" data-name="Path 397" d="M978.994,228.7l27.083,11.057,6.8-.755-16.2-12.174S977.088,222.649,978.994,228.7Z" transform="translate(-609.22 -186.688)" fill="#3f3d56"/>
  <path id="Path_398" data-name="Path 398" d="M624.028,165.767c-1.293.023-4.253-2.145-6.094-3.6a19.337,19.337,0,0,1,2.742-2.113c1.483,1.139,4.124,2.982,5.592,2.917C628.387,162.873,625.973,165.734,624.028,165.767Z" transform="translate(-389.193 -146.837)" fill="#9519c8"/>
  <path id="Path_399" data-name="Path 399" d="M824.156,263.506l-17.387.909L757.884,231.45l-9.075-6.12-4.411-2.974C752.669,215.366,786.41,225,786.41,225a2.975,2.975,0,0,1,.822,2.451,15.092,15.092,0,0,1-1.275,4.866c-.082.189-.132.3-.132.3Z" transform="translate(-466.287 -183.269)" fill="#3f3d56"/>
</svg>
