<svg xmlns="http://www.w3.org/2000/svg" xmlns:xlink="http://www.w3.org/1999/xlink" width="439.676" height="309.566" viewBox="0 0 439.676 309.566">
  <defs>
    <linearGradient id="linear-gradient" x1="0.627" y1="0.5" x2="1.626" y2="0.5" gradientUnits="objectBoundingBox">
      <stop offset="0" stop-color="gray" stop-opacity="0.251"/>
      <stop offset="0.54" stop-color="gray" stop-opacity="0.122"/>
      <stop offset="1" stop-color="gray" stop-opacity="0.102"/>
    </linearGradient>
  </defs>
  <g id="undraw_visual_data_b1wx" transform="translate(-0.003 -0.344)">
    <ellipse id="Ellipse_52" data-name="Ellipse 52" cx="25.269" cy="6.708" rx="25.269" ry="6.708" transform="translate(355.736 296.494)" fill="#9519c8" opacity="0.1"/>
    <path id="Path_317" data-name="Path 317" d="M465.888,338.841c-9.614,7.975-23.294,11.276-36.525,13.361l-2.227.34a418.11,418.11,0,0,1-41.812,3.826c-7.5.363-15,.62-22.5.849l-5.879.174q-11.45.34-22.943.667-11.252.32-22.5.6-14.411.351-28.822.584-11.252.178-22.5.245-14.415.083-28.822-.055-11.26-.114-22.5-.395-14.419-.371-28.822-1.086-9.776-.478-19.54-1.149l-2.965-.209c-27.941-2.014-56.384-5.626-80.836-17.044l-.659-.312c-.328-.154-.655-.308-.983-.47a88.481,88.481,0,0,1-12.855-7.537c-7.229-5.156-13.2-11.45-16.354-18.916-4.943-11.71-2.329-24.874,3.317-36.324S63.265,254.2,70.6,243.42c2.148-3.159,4.185-6.436,6.08-9.8,11.845-21.072,17.72-45.456,5.3-65.761a90.249,90.249,0,0,0-5.3-7.5c-3.028-3.948-6.108-7.9-8.189-12.267-4.852-10.171-3.81-21.609-2.041-32.474,2.369-14.447,6.712-30.006,20.286-39.032,14.083-9.373,34.073-8.9,51.552-5.527C165.46,76.269,190.543,87.17,215.863,97s51.844,18.821,79.683,19.788a127.166,127.166,0,0,0,17.917-.651h0a113.632,113.632,0,0,0,23.342-4.916c10.956-3.609,20.926-9.037,28.317-16.582,15.852-16.128,45.641-17.348,67.12-7.608,20.5,9.294,33.749,28.964,32.77,48.61-1.113,21.869-17.491,39.849-32.5,58.291-1.82,2.235-3.617,4.477-5.366,6.736q-1.465,1.891-2.874,3.79h0c-1.646,2.235-3.238,4.481-4.738,6.755-7.667,11.659-13.088,25.663-7.81,38.25,2.961,7.048,8.611,12.425,15.422,17.119,15.26,10.514,36.324,17.589,45.8,32.308C481.112,311.578,478.088,328.7,465.888,338.841Z" transform="translate(-43.21 -64.275)" fill="#9519c8" opacity="0.1"/>
    <g id="Group_131" data-name="Group 131" transform="translate(180.768 0.344)" opacity="0.1">
      <path id="Path_318" data-name="Path 318" d="M598.689,589.342q.024.557.083,1.09,4.608-1.836,9.045-3.948A7.333,7.333,0,0,0,612,584.439c.865-.434,1.725-.888,2.578-1.342a10.592,10.592,0,0,0-.655-1.185c-1.662-2.626-4.189-4.268-6.973-4.177s-5.192,1.9-6.68,4.615A13.606,13.606,0,0,0,598.689,589.342Z" transform="translate(-560.133 -372.583)" fill="#3f3d56"/>
      <path id="Path_319" data-name="Path 319" d="M597.541,554.39a13.649,13.649,0,0,0,2.033,6.838c1.666,2.618,4.193,4.26,6.977,4.169.193,0,.395-.028.572-.043a7.331,7.331,0,0,0,4.181-2.045,10.056,10.056,0,0,0,1.923-2.519,14.143,14.143,0,0,0-.45-13.819c-1.666-2.625-4.193-4.268-6.977-4.177s-5.188,1.9-6.676,4.615A13.61,13.61,0,0,0,597.541,554.39Z" transform="translate(-559.438 -351.438)" fill="#3f3d56"/>
      <ellipse id="Ellipse_53" data-name="Ellipse 53" cx="8.635" cy="11.304" rx="8.635" ry="11.304" transform="matrix(0.999, -0.033, 0.033, 0.999, 37.286, 177.841)" fill="#3f3d56"/>
      <ellipse id="Ellipse_54" data-name="Ellipse 54" cx="8.635" cy="11.304" rx="8.635" ry="11.304" transform="matrix(0.999, -0.033, 0.033, 0.999, 36.833, 164.036)" fill="#3f3d56"/>
      <ellipse id="Ellipse_55" data-name="Ellipse 55" cx="8.635" cy="11.304" rx="8.635" ry="11.304" transform="matrix(0.999, -0.033, 0.033, 0.999, 36.38, 150.228)" fill="#3f3d56"/>
      <path id="Path_320" data-name="Path 320" d="M575.654,123.843a41.086,41.086,0,0,0,3.056-4.837l-22.8-2.977,24.526-.624a41.413,41.413,0,0,0-.284-32.77l-32.34,18.142,29.612-23.294a41.358,41.358,0,1,0-66.768,48.508,41.52,41.52,0,0,0-4.465,7.691l29.931,14.324-31.728-9.5a41.377,41.377,0,0,0,7.94,38.594,41.354,41.354,0,1,0,64.972-2.152A41.365,41.365,0,0,0,575.654,123.843Z" transform="translate(-501.054 -58.134)" fill="#9519c8"/>
      <path id="Path_321" data-name="Path 321" d="M505.1,294.386a41.164,41.164,0,0,0,9.685,25.269,41.354,41.354,0,1,0,64.972-2.14C585.067,310.306,504.95,289.747,505.1,294.386Z" transform="translate(-503.502 -200.701)" opacity="0.1"/>
    </g>
    <g id="Group_132" data-name="Group 132" transform="translate(94.982 135.498)" opacity="0.1">
      <path id="Path_322" data-name="Path 322" d="M352.052,778.747a6.762,6.762,0,0,1-.059.79q-3.277-1.3-6.44-2.791a5.215,5.215,0,0,1-2.977-1.449q-.924-.47-1.836-.956a7.477,7.477,0,0,1,.466-.837,5.324,5.324,0,0,1,9.7.3A9.673,9.673,0,0,1,352.052,778.747Z" transform="translate(-318.249 -624.411)" fill="#3f3d56"/>
      <path id="Path_323" data-name="Path 323" d="M351.365,753.832a9.709,9.709,0,0,1-1.437,4.868,5.787,5.787,0,0,1-4.959,2.973l-.395-.032a5.216,5.216,0,0,1-2.977-1.449,7.107,7.107,0,0,1-1.37-1.792,10.08,10.08,0,0,1,.308-9.827,5.34,5.34,0,0,1,9.717.3A9.673,9.673,0,0,1,351.365,753.832Z" transform="translate(-317.254 -609.324)" fill="#3f3d56"/>
      <ellipse id="Ellipse_56" data-name="Ellipse 56" cx="8.043" cy="6.143" rx="8.043" ry="6.143" transform="translate(21.895 142.351) rotate(-88.19)" fill="#3f3d56"/>
      <ellipse id="Ellipse_57" data-name="Ellipse 57" cx="8.043" cy="6.143" rx="8.043" ry="6.143" transform="translate(22.202 132.526) rotate(-88.19)" fill="#3f3d56"/>
      <ellipse id="Ellipse_58" data-name="Ellipse 58" cx="8.043" cy="6.143" rx="8.043" ry="6.143" transform="translate(22.513 122.696) rotate(-88.19)" fill="#3f3d56"/>
      <path id="Path_324" data-name="Path 324" d="M291.807,447.324a29.93,29.93,0,0,1-2.183-3.439l16.219-2.156-17.455-.395a29.469,29.469,0,0,1,.174-23.326l23.03,12.883L290.5,414.329a29.43,29.43,0,1,1,47.544,34.452,29.387,29.387,0,0,1,3.186,5.472l-21.289,10.218,22.572-6.791a29.474,29.474,0,0,1-5.614,27.48,29.43,29.43,0,1,1-46.241-1.461,29.43,29.43,0,0,1,1.149-36.371Z" transform="translate(-283.775 -400.451)" fill="#9519c8"/>
      <path id="Path_325" data-name="Path 325" d="M343.766,568.7a29.323,29.323,0,0,1-6.866,17.992,29.43,29.43,0,1,1-46.241-1.461C286.872,580.095,343.876,565.392,343.766,568.7Z" transform="translate(-283.775 -501.98)" opacity="0.1"/>
    </g>
    <g id="Group_133" data-name="Group 133" transform="translate(300.598 84.103)" opacity="0.1">
      <path id="Path_326" data-name="Path 326" d="M872.822,648.7a7.653,7.653,0,0,1-.055.79q-3.281-1.3-6.44-2.791a5.236,5.236,0,0,1-2.981-1.449c-.612-.312-1.228-.632-1.836-.956a8.173,8.173,0,0,1,.466-.837,5.324,5.324,0,0,1,9.7.3A9.673,9.673,0,0,1,872.822,648.7Z" transform="translate(-839.024 -494.312)" fill="#3f3d56"/>
      <path id="Path_327" data-name="Path 327" d="M872.183,623.782a9.709,9.709,0,0,1-1.441,4.868,5.782,5.782,0,0,1-4.959,2.973l-.395-.032a5.235,5.235,0,0,1-2.981-1.449,7.23,7.23,0,0,1-1.37-1.792,10.08,10.08,0,0,1,.308-9.827,5.34,5.34,0,0,1,9.716.3A9.672,9.672,0,0,1,872.183,623.782Z" transform="translate(-838.055 -479.225)" fill="#3f3d56"/>
      <ellipse id="Ellipse_59" data-name="Ellipse 59" cx="8.043" cy="6.143" rx="8.043" ry="6.143" transform="translate(21.904 142.397) rotate(-88.19)" fill="#3f3d56"/>
      <ellipse id="Ellipse_60" data-name="Ellipse 60" cx="8.043" cy="6.143" rx="8.043" ry="6.143" transform="translate(22.215 132.571) rotate(-88.19)" fill="#3f3d56"/>
      <ellipse id="Ellipse_61" data-name="Ellipse 61" cx="8.043" cy="6.143" rx="8.043" ry="6.143" transform="translate(22.525 122.746) rotate(-88.19)" fill="#3f3d56"/>
      <path id="Path_328" data-name="Path 328" d="M812.586,317.2a29.038,29.038,0,0,1-2.179-3.439l16.219-2.136-17.455-.422a29.493,29.493,0,0,1,.17-23.326l23.03,12.883L811.279,284.2a29.434,29.434,0,1,1,47.544,34.452,29.375,29.375,0,0,1,3.182,5.472l-21.289,10.218,22.572-6.791a29.442,29.442,0,0,1-5.614,27.476,29.426,29.426,0,1,1-46.23-1.461,29.43,29.43,0,0,1,1.149-36.371Z" transform="translate(-804.559 -270.277)" fill="#9519c8"/>
      <path id="Path_329" data-name="Path 329" d="M864.552,438.645a29.3,29.3,0,0,1-6.87,17.988,29.426,29.426,0,1,1-46.234-1.461C807.658,450.043,864.654,435.336,864.552,438.645Z" transform="translate(-804.562 -371.879)" opacity="0.1"/>
    </g>
    <ellipse id="Ellipse_62" data-name="Ellipse 62" cx="22.509" cy="4.327" rx="22.509" ry="4.327" transform="translate(53.891 292.348)" fill="#9519c8"/>
    <ellipse id="Ellipse_63" data-name="Ellipse 63" cx="2.622" cy="3.431" rx="2.622" ry="3.431" transform="translate(73.403 291.405)" fill="#3f3d56"/>
    <ellipse id="Ellipse_64" data-name="Ellipse 64" cx="2.622" cy="3.431" rx="2.622" ry="3.431" transform="translate(73.403 287.212)" fill="#3f3d56"/>
    <ellipse id="Ellipse_65" data-name="Ellipse 65" cx="2.622" cy="3.431" rx="2.622" ry="3.431" transform="translate(73.403 283.019)" fill="#3f3d56"/>
    <ellipse id="Ellipse_66" data-name="Ellipse 66" cx="2.622" cy="3.431" rx="2.622" ry="3.431" transform="translate(73.403 278.826)" fill="#3f3d56"/>
    <ellipse id="Ellipse_67" data-name="Ellipse 67" cx="2.622" cy="3.431" rx="2.622" ry="3.431" transform="translate(73.403 274.633)" fill="#3f3d56"/>
    <ellipse id="Ellipse_68" data-name="Ellipse 68" cx="2.622" cy="3.431" rx="2.622" ry="3.431" transform="translate(73.403 270.44)" fill="#3f3d56"/>
    <ellipse id="Ellipse_69" data-name="Ellipse 69" cx="2.622" cy="3.431" rx="2.622" ry="3.431" transform="translate(73.403 266.247)" fill="#3f3d56"/>
    <path id="Path_330" data-name="Path 330" d="M226.242,636.469a12.767,12.767,0,0,0,.975-1.437l-6.886-1.133,7.446.059a12.591,12.591,0,0,0,.241-9.95l-9.993,5.184,9.215-6.787A12.555,12.555,0,1,0,206.5,636.457a12.632,12.632,0,0,0-1.429,2.29l8.939,4.643-9.531-3.2a12.563,12.563,0,0,0,2.021,11.789,12.555,12.555,0,1,0,19.741,0,12.563,12.563,0,0,0,0-15.524Z" transform="translate(-140.406 -395.487)" fill="#9519c8"/>
    <path id="Path_331" data-name="Path 331" d="M203.82,687a12.5,12.5,0,0,0,2.685,7.762,12.555,12.555,0,1,0,19.741,0C227.924,692.623,203.82,685.587,203.82,687Z" transform="translate(-140.406 -438.252)" opacity="0.1"/>
    <path id="Path_332" data-name="Path 332" d="M355.215,569.662v89.23q-9.776-.478-19.54-1.149l-2.965-.209V569.662a3.482,3.482,0,0,1,3.482-3.482h15.54A3.482,3.482,0,0,1,355.215,569.662Z" transform="translate(-218.408 -365.249)" fill="#3f3d56"/>
    <path id="Path_333" data-name="Path 333" d="M462.71,568.619V418.662a3.482,3.482,0,0,1,3.482-3.482h15.54a3.482,3.482,0,0,1,3.482,3.482V569.01Z" transform="translate(-297.081 -273.867)" fill="#3f3d56"/>
    <path id="Path_334" data-name="Path 334" d="M592.71,616.9V497.662a3.482,3.482,0,0,1,3.482-3.482h15.54a3.482,3.482,0,0,1,3.482,3.482V616.642Z" transform="translate(-375.754 -321.676)" fill="#3f3d56"/>
    <path id="Path_335" data-name="Path 335" d="M745.215,273.662V479.9q-11.252.32-22.5.6V273.662a3.482,3.482,0,0,1,3.482-3.482h15.54A3.482,3.482,0,0,1,745.215,273.662Z" transform="translate(-454.427 -186.116)" fill="#3f3d56"/>
    <path id="Path_336" data-name="Path 336" d="M875.215,378.662V541.724c-7.5.363-15,.62-22.5.849V378.662a3.482,3.482,0,0,1,3.482-3.482h15.54A3.482,3.482,0,0,1,875.215,378.662Z" transform="translate(-533.101 -249.659)" fill="#3f3d56"/>
    <path id="Path_337" data-name="Path 337" d="M318.5,206.277l51.327-57.249,51.327,28.822L472.48,89.41l51.327,42.246" transform="translate(-192.748 -53.901)" fill="none" stroke="#3f3d56" stroke-linecap="round" stroke-miterlimit="10" stroke-width="7"/>
    <circle id="Ellipse_70" data-name="Ellipse 70" cx="11.055" cy="11.055" r="11.055" transform="translate(114.5 141.321)" fill="#9519c8"/>
    <circle id="Ellipse_71" data-name="Ellipse 71" cx="11.055" cy="11.055" r="11.055" transform="translate(165.827 84.072)" fill="#9519c8"/>
    <circle id="Ellipse_72" data-name="Ellipse 72" cx="11.055" cy="11.055" r="11.055" transform="translate(217.153 112.894)" fill="#9519c8"/>
    <circle id="Ellipse_73" data-name="Ellipse 73" cx="11.055" cy="11.055" r="11.055" transform="translate(268.48 24.454)" fill="#9519c8"/>
    <circle id="Ellipse_74" data-name="Ellipse 74" cx="11.055" cy="11.055" r="11.055" transform="translate(367.185 118.422)" fill="#9519c8"/>
    <ellipse id="Ellipse_75" data-name="Ellipse 75" cx="7.375" cy="1.248" rx="7.375" ry="1.248" transform="translate(84.888 284.262)" fill="#9519c8" opacity="0.1"/>
    <path id="Path_338" data-name="Path 338" d="M264.35,762.247s4.2-.13,5.472-1.034,6.471-1.974,6.787-.533,6.317,7.2,1.579,7.241-11.035-.742-12.3-1.512S264.35,762.247,264.35,762.247Z" transform="translate(-177.038 -482.528)" fill="#a8a8a8"/>
    <path id="Path_339" data-name="Path 339" d="M278.264,770.892c-4.738.039-11.031-.738-12.3-1.508-.963-.588-1.346-2.693-1.477-3.664h-.138s.265,3.392,1.532,4.161,7.549,1.552,12.3,1.512c1.37,0,1.844-.5,1.816-1.22C279.807,770.612,279.286,770.884,278.264,770.892Z" transform="translate(-177.038 -486.006)" opacity="0.2"/>
    <ellipse id="Ellipse_76" data-name="Ellipse 76" cx="13.546" cy="2.29" rx="13.546" ry="2.29" transform="translate(406.466 293.801)" fill="#9519c8" opacity="0.1"/>
    <path id="Path_340" data-name="Path 340" d="M1084,773.853s7.727-.237,10.056-1.9,11.884-3.636,12.461-.979,11.616,13.227,2.89,13.3-20.27-1.358-22.6-2.764S1084,773.853,1084,773.853Z" transform="translate(-673.072 -488.402)" fill="#a8a8a8"/>
    <path id="Path_341" data-name="Path 341" d="M1109.535,789.786c-8.725.071-20.27-1.358-22.6-2.764-1.769-1.078-2.475-4.947-2.712-6.712h-.257s.49,6.234,2.811,7.648,13.874,2.847,22.6,2.764c2.519,0,3.387-.916,3.34-2.243C1112.365,789.269,1111.406,789.77,1109.535,789.786Z" transform="translate(-673.054 -494.835)" opacity="0.2"/>
    <path id="Path_342" data-name="Path 342" d="M892.714,391.755a3.554,3.554,0,0,0,.79,1.883,6.834,6.834,0,0,0,2.2,1.331,8.686,8.686,0,0,1,4.248,4.884c1.315,3.838,1.484,7.9,3.159,11.6s3.64,7.261,5.085,11.055a37.053,37.053,0,0,0,2.681,6.349,9.847,9.847,0,0,0,2.2,2.531c-.091,1.39-.126,2.764-.118,4.154a1.579,1.579,0,0,1,1.35.711,4.11,4.11,0,0,1,.592,1.481c.541,2.239-.126,4.623.359,6.874a34.967,34.967,0,0,1-1.185,18.809c-.541,1.532-1.22,6.6-.644,8.121,2.148-.217,4.051,1.1,6.061,1.974a8.338,8.338,0,0,1-.284,3.553,19.572,19.572,0,0,0-.707,6.542l.1,16.29a24.57,24.57,0,0,0,.545,6.159c.588,2.254,1.824,4.552,1.785,6.882-.107,5.014,2.262,9.792,2.073,14.766-.036.955-.166,1.9-.257,2.851a32.435,32.435,0,0,0,.189,7.577c.719,5,2.618,9.914,2.144,14.94-.032.34-.146.79-.466.92.395.446.813.888,1.24,1.311a1.125,1.125,0,0,1-.344.359,3.489,3.489,0,0,1-1.508.395,3.194,3.194,0,0,0-1.725.561,2.483,2.483,0,0,0-.719,1.319,3.554,3.554,0,0,0,.474,2.953,3.3,3.3,0,0,0,1.338,1c1.824.79,3.917.217,5.82-.359l7.454-2.258a2.511,2.511,0,0,0,1.212-.632,1.328,1.328,0,0,0,.3-.64,10.2,10.2,0,0,0,5.133-.592l7.454-2.262a2.476,2.476,0,0,0,1.212-.632,1.446,1.446,0,0,0,.3-1.185c.055-.024.11-.039.166-.067.569-.257,1.184-.758,1.046-1.362-.1-.395-.494-.624-.663-.987a1.425,1.425,0,0,1,.276-1.394c.292-.395.687-.723.955-1.137.861-1.319.276-3.052-.047-4.6-.7-3.3-.051-6.74-.493-10.08-.15-1.125-.422-2.231-.64-3.348a68.4,68.4,0,0,1-.912-7.983c-.284-3.822-1.346-7.588-.738-11.379a44.177,44.177,0,0,0,.375-6.712,29.2,29.2,0,0,0-.186-4.28c-.154-1.058-.426-2.1-.545-3.159a28.628,28.628,0,0,1-.063-3.589,35.509,35.509,0,0,0-.734-7.944c-.79-3.589-2.274-7.024-2.906-10.621.213.047.426.095.632.15.024-2.764-2.4-8.773-3.293-11.395a3.311,3.311,0,0,1-.237-1.007,10.846,10.846,0,0,1,.249-1.354,11.1,11.1,0,0,0-.533-2.819,6.614,6.614,0,0,1,.146-2.006c.636-3.534,1.425-7.04,2.215-10.542a11.228,11.228,0,0,0,.351-3.9,4.892,4.892,0,0,1,1.184-3.881,4.6,4.6,0,0,0,.877-1.1,2.8,2.8,0,0,0,.174-1.1,17.7,17.7,0,0,0-.711-4.8,12.414,12.414,0,0,0,1.153-4.268,69.308,69.308,0,0,0,.869-9.724,16.478,16.478,0,0,0-.711-5.133,20.366,20.366,0,0,0-1.35-2.977,96.889,96.889,0,0,0-6.684-11.872c-.79-1.113-.292-2.649-.237-4.023a11.487,11.487,0,0,0-1.24-4.773,7.831,7.831,0,0,0-1.485-2.555,2.412,2.412,0,0,0-1.737-.79,2.618,2.618,0,0,0-1.852,1.133,6.108,6.108,0,0,0-1.109,4.568,8.832,8.832,0,0,0,2.01,4.315,9.786,9.786,0,0,0,1.733,1.646q.979,3.111,1.974,6.218a77.566,77.566,0,0,0,3.553,9.728,7.678,7.678,0,0,1,.955,2.823,8.294,8.294,0,0,1-.754,3.119,22.015,22.015,0,0,0-1.271,6.578,2.252,2.252,0,0,0-.332.182c-1.244.813-1.635,2.586-2.93,3.313a9.171,9.171,0,0,1-2.515.588.868.868,0,0,0-.229.063c-.032-.158-.063-.312-.083-.474a1.279,1.279,0,0,1,0-.3,13.262,13.262,0,0,0,4.908-4.675,4.279,4.279,0,0,0,.58-1.184,4.586,4.586,0,0,0,.059-1.54,24.579,24.579,0,0,0-.73-5.073,8.438,8.438,0,0,0-2.641-4.3c-.647-.521-1.394-.912-2.037-1.437-1.256-1.015-2.116-2.515-3.553-3.269a4.276,4.276,0,0,0-5.373,1.39,3.115,3.115,0,0,1-.79,1,8.1,8.1,0,0,0-.734.395,1.5,1.5,0,0,0-.316,1.556,16.186,16.186,0,0,1,.45,3.391,8.291,8.291,0,0,0-.024,10.727c0,.734,0,1.469-.028,2.2a2.126,2.126,0,0,1-.028.419,2.847,2.847,0,0,1-1.184-.79c-.442-.553-.521-1.366-1.062-1.82a3,3,0,0,0-1.3-.474,8.042,8.042,0,0,1-3.159-1.5,6.344,6.344,0,0,0-2.341-1.453,51.95,51.95,0,0,0-5.133-7.833,15.268,15.268,0,0,1-1.342-1.844,25.648,25.648,0,0,1-1.639-4.844c-1.5-4.548-5.243-8.2-6.155-12.9-.332-1.706-1.413-3.19-2.156-4.762a6.08,6.08,0,0,0-2.057-2.791,3.5,3.5,0,0,0-4.15.636A4.987,4.987,0,0,0,892.714,391.755Zm46.877,159.78a3.493,3.493,0,0,1-1.508.395,7.271,7.271,0,0,0-.79.126c-.1-.829-.154-1.67-.217-2.487-.209-2.681-.628-5.342-1.042-8-.434-2.764-.64-5.788-1.579-8.441-1.512-4.319-3.044-8.769-2.851-13.345.043-1.038.174-2.069.229-3.1.126-2.562-.233-5.18.395-7.671.28-1.133.758-2.215.94-3.368a15.975,15.975,0,0,0,.039-3.135,41.665,41.665,0,0,1,.9-10.8,7.621,7.621,0,0,1,1.184,3.388l1.481,8.031c.88,4.766,1.658,9.819,3.992,14.06a8.372,8.372,0,0,0-.111,4.619c.233.632.616,1.184.853,1.824a13.589,13.589,0,0,1,.458,3.356c.257,2.369,1.236,4.7.517,6.984a34.075,34.075,0,0,0-1.433,7.249,17.662,17.662,0,0,1-.237,2.041c-.126.608-.332,1.185-.446,1.808a5.988,5.988,0,0,0,.115,2.633,5.382,5.382,0,0,1,.324,1.481c0,.505-.62.869-1.117.948.146.189.3.371.466.549A1.731,1.731,0,0,1,939.591,551.535Z" transform="translate(-557.272 -255.499)" fill="url(#linear-gradient)"/>
    <path id="Path_343" data-name="Path 343" d="M968.1,815.419a3.194,3.194,0,0,0-1.725.561,2.432,2.432,0,0,0-.719,1.311,3.506,3.506,0,0,0,.474,2.93,3.289,3.289,0,0,0,1.339,1c1.824.79,3.917.213,5.82-.359l7.454-2.243a2.5,2.5,0,0,0,1.212-.628,1.646,1.646,0,0,0,.032-1.919,3.727,3.727,0,0,0-1.579-1.259,17.686,17.686,0,0,0-7.478-1.433c-.948,0-1.883-.229-2.527.5-.339.395-.276.817-.79,1.153A3.555,3.555,0,0,1,968.1,815.419Z" transform="translate(-601.372 -514.827)" fill="#3f3d56"/>
    <path id="Path_344" data-name="Path 344" d="M1003.77,805.041a3.227,3.227,0,0,0-1.725.561,2.448,2.448,0,0,0-.719,1.311,3.518,3.518,0,0,0,.474,2.934,3.317,3.317,0,0,0,1.339.995c1.828.79,3.917.217,5.82-.355l7.454-2.247a2.5,2.5,0,0,0,1.212-.628,1.642,1.642,0,0,0,.032-1.915,3.74,3.74,0,0,0-1.579-1.26,17.717,17.717,0,0,0-7.482-1.437c-.948,0-1.879-.225-2.527.505-.339.395-.276.813-.79,1.149A3.434,3.434,0,0,1,1003.77,805.041Z" transform="translate(-622.959 -508.547)" fill="#3f3d56"/>
    <path id="Path_345" data-name="Path 345" d="M971.17,601.147a91.827,91.827,0,0,1,13.223-.371,2.63,2.63,0,0,1,.857.134c.971.395,1.121,1.666,1.212,2.7.395,4.217,2.235,8.145,3.158,12.275a35.068,35.068,0,0,1,.734,7.9,28.317,28.317,0,0,0,.063,3.553c.119,1.054.395,2.089.545,3.139a28.823,28.823,0,0,1,.186,4.252,43.631,43.631,0,0,1-.375,6.661c-.608,3.763.454,7.5.738,11.308a67.494,67.494,0,0,0,.9,7.94c.217,1.109.49,2.207.64,3.324.442,3.32-.205,6.74.494,10.017.324,1.532.908,3.253.047,4.564-.269.395-.663.73-.956,1.129a1.41,1.41,0,0,0-.276,1.386c.17.359.565.6.663.979.154.6-.478,1.1-1.046,1.354a10.9,10.9,0,0,1-12.7-3.135c.5-.079,1.105-.438,1.117-.944a5.332,5.332,0,0,0-.324-1.469,5.924,5.924,0,0,1-.115-2.614c.115-.608.32-1.184.446-1.8a17.462,17.462,0,0,0,.237-2.029,33.643,33.643,0,0,1,1.433-7.2c.719-2.27-.261-4.568-.517-6.937a13.629,13.629,0,0,0-.458-3.336c-.237-.624-.62-1.185-.853-1.808a8.273,8.273,0,0,1,.111-4.592c-2.333-4.213-3.111-9.235-3.992-13.969l-1.48-7.975a7.842,7.842,0,0,0-1.185-3.368,41.128,41.128,0,0,0-.9,10.727,15.785,15.785,0,0,1-.039,3.115c-.182,1.145-.659,2.223-.94,3.344-.612,2.476-.253,5.073-.395,7.62-.055,1.031-.186,2.053-.229,3.084-.193,4.548,1.339,8.97,2.851,13.262.928,2.633,1.133,5.626,1.579,8.382.395,2.641.833,5.283,1.042,7.948.193,2.448.28,5.1,1.8,7.02a12.931,12.931,0,0,1-4.461,2.136,8.236,8.236,0,0,1-5.5-1.066,17.29,17.29,0,0,1-4.343-3.692c.32-.11.434-.576.466-.912.474-5-1.425-9.871-2.144-14.845a31.979,31.979,0,0,1-.189-7.525c.091-.944.221-1.887.257-2.835.19-4.939-2.191-9.7-2.1-14.64.039-2.318-1.184-4.6-1.785-6.838a24.754,24.754,0,0,1-.545-6.12l-.1-16.188a20.011,20.011,0,0,1,.707-6.495c.869-2.487-.126-5.342-.276-7.971A32.857,32.857,0,0,0,971.17,601.147Z" transform="translate(-596.838 -385.552)" fill="#696791"/>
    <path id="Path_346" data-name="Path 346" d="M917.526,428.912a51.583,51.583,0,0,0-6.045-9.543,15.134,15.134,0,0,1-1.343-1.832,25.429,25.429,0,0,1-1.638-4.813c-1.5-4.517-5.243-8.145-6.155-12.816-.332-1.7-1.413-3.159-2.156-4.738a5.981,5.981,0,0,0-2.057-2.764,3.507,3.507,0,0,0-4.15.632,4.931,4.931,0,0,0-1.271,4.165,3.526,3.526,0,0,0,.79,1.871,6.884,6.884,0,0,0,2.2,1.323,8.638,8.638,0,0,1,4.248,4.852c1.315,3.81,1.485,7.845,3.159,11.525s3.64,7.209,5.085,10.972a37.845,37.845,0,0,0,2.681,6.317,7.776,7.776,0,0,0,5.354,3.924,13.205,13.205,0,0,1,.644-4.217C917.365,432.217,918.241,430.385,917.526,428.912Z" transform="translate(-557.27 -259.827)" fill="#a0616a"/>
    <path id="Path_347" data-name="Path 347" d="M1004.9,429.329a21.817,21.817,0,0,1,1.283-8.2,8.5,8.5,0,0,0,.754-3.1,7.6,7.6,0,0,0-.955-2.807,71.987,71.987,0,0,1-3.553-9.661l-1.974-6.179a9.6,9.6,0,0,1-1.733-1.638,8.725,8.725,0,0,1-2.01-4.288,6.021,6.021,0,0,1,1.109-4.533,2.625,2.625,0,0,1,1.852-1.129,2.424,2.424,0,0,1,1.737.79,7.783,7.783,0,0,1,1.484,2.535,11.364,11.364,0,0,1,1.24,4.738c-.055,1.366-.565,2.89.237,4a95.946,95.946,0,0,1,6.684,11.8,19.978,19.978,0,0,1,1.35,2.957,16.259,16.259,0,0,1,.711,5.109,70.91,70.91,0,0,1-.869,9.661c-.28,2.01-.648,4.2-2.168,5.527A31.3,31.3,0,0,0,1004.9,429.329Z" transform="translate(-620.204 -257.291)" fill="#a0616a"/>
    <circle id="Ellipse_77" data-name="Ellipse 77" cx="8.193" cy="8.193" r="8.193" transform="translate(366.463 157.193)" fill="#a0616a"/>
    <path id="Path_348" data-name="Path 348" d="M979.074,489.974a10.956,10.956,0,0,0,1.765,4.086c.466.79,1.062,1.631,1.974,1.718a39.785,39.785,0,0,1-7.443,2.993,8.417,8.417,0,0,1-2.716.438,6.645,6.645,0,0,1-2.262-.58,11.248,11.248,0,0,1-6.392-7.47,14.846,14.846,0,0,0,3.044-.233,2.238,2.238,0,0,0,1.492-.734,2.369,2.369,0,0,0,.308-1.319c.039-1.366.043-2.736,0-4.1a16.187,16.187,0,0,1,5.954.734c.79.257,1.579.565,2.369.766.5.126,1.868,0,2.235.288C980.006,486.965,978.936,488.967,979.074,489.974Z" transform="translate(-600.451 -315.961)" fill="#a0616a"/>
    <path id="Path_349" data-name="Path 349" d="M963.344,492.616a5.156,5.156,0,0,1,3.925-4.584,9.167,9.167,0,0,0,2.515-.584c1.3-.722,1.686-2.483,2.93-3.293a3.463,3.463,0,0,1,4.09.663,8.784,8.784,0,0,1,2.073,3.9,19.767,19.767,0,0,1,1.062,5.982,2.761,2.761,0,0,1-.174,1.094,4.565,4.565,0,0,1-.876,1.094,4.84,4.84,0,0,0-1.184,3.857,11.056,11.056,0,0,1-.351,3.869c-.79,3.482-1.579,6.961-2.215,10.475a6.5,6.5,0,0,0-.146,1.974c.122.951.648,1.852.533,2.8a10.609,10.609,0,0,0-.249,1.346,3.264,3.264,0,0,0,.237,1c.9,2.6,3.316,8.564,3.293,11.32-4.2-1.078-10.4-1.319-14.747-1.339a32.836,32.836,0,0,0-3.577.158c-2.854.308-5.776,1.141-8.544.371-2.57-.715-4.844-2.764-7.5-2.507-.576-1.508.1-6.542.643-8.066a34.523,34.523,0,0,0,1.185-18.687c-.486-2.235.182-4.607-.359-6.826a4.069,4.069,0,0,0-.592-1.473,1.579,1.579,0,0,0-1.35-.707,50.285,50.285,0,0,1,.987-10.633c.26-1.244.79-2.712,2.065-2.926,1.129-.193,2.077.762,2.985,1.461a8.018,8.018,0,0,0,3.159,1.485,3,3,0,0,1,1.3.474c.541.45.62,1.259,1.062,1.808.79.983,2.554.9,3.115,2.033a7.746,7.746,0,0,1,.3,1.034,3.8,3.8,0,0,0,1.3,1.682A7.329,7.329,0,0,0,963.344,492.616Z" transform="translate(-588.322 -313.624)" fill="#f86d70"/>
    <path id="Path_350" data-name="Path 350" d="M975.151,446.83a1.5,1.5,0,0,1,.316-1.548c.217-.17.5-.233.734-.395a3.164,3.164,0,0,0,.79-1,4.287,4.287,0,0,1,5.365-1.362c1.425.746,2.286,2.239,3.553,3.245.644.521,1.39.908,2.037,1.429a8.373,8.373,0,0,1,2.641,4.272,24.24,24.24,0,0,1,.73,5.038,4.53,4.53,0,0,1-.059,1.532,4.284,4.284,0,0,1-.58,1.185,13.19,13.19,0,0,1-5.172,4.785,7.994,7.994,0,0,1-6.894.118,1.184,1.184,0,0,1-.529-.422A1.52,1.52,0,0,1,978,462.8a6.242,6.242,0,0,0-.687-3.494c-.395-.79-.987-1.469-1.3-2.286a7.964,7.964,0,0,1-.371-2.835A30.632,30.632,0,0,0,975.151,446.83Z" transform="translate(-607.152 -290.154)" fill="#2d293d"/>
  </g>
</svg>
